<svg width="18" height="15" viewBox="0 0 18 15" fill="none" xmlns="http://www.w3.org/2000/svg">
<path fill-rule="evenodd" clip-rule="evenodd" d="M17.1416 7.50001C17.1416 7.78412 17.0287 8.05659 16.8278 8.25749C16.6269 8.45838 16.3545 8.57124 16.0704 8.57124L3.65905 8.57124L8.25893 13.169C8.46008 13.3701 8.57308 13.6429 8.57308 13.9274C8.57308 14.2119 8.46008 14.4847 8.25893 14.6858C8.05778 14.887 7.78496 15 7.5005 15C7.21603 15 6.94321 14.887 6.74206 14.6858L0.31466 8.25844C0.2149 8.15893 0.135752 8.04072 0.081748 7.91058C0.027744 7.78043 -5.41855e-05 7.64091 -5.41732e-05 7.50001C-5.41609e-05 7.3591 0.0277441 7.21958 0.0817481 7.08944C0.135752 6.9593 0.2149 6.84108 0.31466 6.74157L6.74206 0.314171C6.94321 0.113022 7.21603 1.87317e-05 7.5005 1.87566e-05C7.78497 1.87814e-05 8.05778 0.113022 8.25893 0.314172C8.46008 0.515321 8.57309 0.788138 8.57309 1.07261C8.57309 1.35707 8.46008 1.62989 8.25893 1.83104L3.65905 6.42877L16.0704 6.42878C16.3545 6.42878 16.6269 6.54164 16.8278 6.74253C17.0287 6.94343 17.1416 7.2159 17.1416 7.50001Z" fill="#69ABFF"/>
</svg>
