<svg width="55" height="32" viewBox="0 0 55 32" fill="none" xmlns="http://www.w3.org/2000/svg">
<g style="mix-blend-mode:darken">
<path d="M48.93 10.92H44.2L42.68 13.82H43.44L39.92 20.82H43.43L44.12 19.13H46.12V20.82H49.34L48.93 10.92ZM45.1 16.78L46.1 14.29L46.15 16.78H45.1Z" fill="#005CAA"/>
</g>
<g style="mix-blend-mode:darken">
<path d="M39.4 20.86L41 17.66C40.5201 17.9929 39.9764 18.2225 39.4032 18.3344C38.83 18.4463 38.2398 18.438 37.67 18.31C37.269 18.162 36.9281 17.8857 36.7002 17.5241C36.4724 17.1624 36.3703 16.7356 36.41 16.31C36.4449 15.9447 36.5545 15.5904 36.7319 15.2692C36.9093 14.9479 37.1509 14.6666 37.4415 14.4425C37.7321 14.2184 38.0657 14.0564 38.4215 13.9665C38.7773 13.8767 39.1478 13.8608 39.51 13.92C40.2075 13.9766 40.8659 14.2653 41.38 14.74L42.89 12L40.78 10.9L40.52 11.23C39.5272 10.9295 38.4583 11.0079 37.52 11.45C37.0477 11.6169 36.595 11.8348 36.17 12.1C35.4269 12.5611 34.7869 13.1704 34.29 13.89C34.29 13.89 32.4 16.61 33.64 19C34.26 20.34 35.64 21.1 37.72 21.1C38.2898 21.1204 38.8587 21.0391 39.4 20.86Z" fill="#005CAA"/>
</g>
<g style="mix-blend-mode:darken">
<path d="M33.1801 11.57C32.6498 11.1183 31.9655 10.889 31.2701 10.93H27.1501L25.6301 13.93H26.3501L24.5801 20.84H29.4401C30.3702 20.8364 31.2641 20.4789 31.9401 19.84C33.2701 18.52 33.4401 16.57 31.9401 15.71C33.7901 14.7 34.2601 12.68 33.1801 11.57ZM30.1001 17.84C29.9935 17.9816 29.8512 18.0923 29.6878 18.1608C29.5244 18.2293 29.3457 18.2532 29.1701 18.23H28.1701L28.5901 16.74H29.6401C29.7688 16.7369 29.8955 16.7728 30.0036 16.8429C30.1117 16.913 30.1961 17.0141 30.2457 17.1329C30.2954 17.2517 30.3081 17.3828 30.2821 17.5089C30.2561 17.6351 30.1927 17.7505 30.1001 17.84ZM30.6501 14.51C30.4982 14.7069 30.2826 14.8448 30.0401 14.9H29.0001L29.2701 13.62H30.3201C30.4225 13.622 30.5219 13.6548 30.6054 13.7141C30.6889 13.7735 30.7526 13.8566 30.7882 13.9526C30.8238 14.0486 30.8297 14.1532 30.8051 14.2526C30.7804 14.352 30.7264 14.4417 30.6501 14.51Z" fill="#005CAA"/>
</g>
<g style="mix-blend-mode:darken">
<g style="mix-blend-mode:darken">
<path d="M13.8801 20.33H13.6601V17.73C13.5701 15.35 12.9601 14.67 12.0201 13.73C11.6273 13.3713 11.3545 12.9003 11.2387 12.3812C11.123 11.862 11.1699 11.3198 11.373 10.8282C11.5762 10.3366 11.9259 9.91946 12.3744 9.63353C12.8229 9.3476 13.3487 9.2067 13.8801 9.23" fill="#005CAA"/>
</g>
<g style="mix-blend-mode:darken">
<path d="M13.88 20.33H14.1V17.73C14.19 15.35 14.8 14.67 15.73 13.73C16.122 13.3718 16.3944 12.9018 16.5104 12.3837C16.6264 11.8655 16.5803 11.3242 16.3784 10.8331C16.1765 10.3421 15.8286 9.92487 15.3817 9.63812C14.9348 9.35136 14.4106 9.20889 13.88 9.23" fill="#005CAA"/>
</g>
<g style="mix-blend-mode:darken">
<path d="M13.53 20.33C13.69 17.73 13.42 15.92 12.64 14.65C12.3826 14.2485 12.0415 13.9074 11.64 13.65C11.3751 13.4801 11.0761 13.3706 10.7641 13.3295C10.4521 13.2884 10.1348 13.3166 9.83499 13.4121C9.53513 13.5076 9.26003 13.668 9.02928 13.882C8.79853 14.096 8.61781 14.3582 8.5 14.65C8.37183 15.0707 8.33434 15.5138 8.39 15.95C8.49 16.79 9.25 17.1 9.98 17.31C10.71 17.52 12.98 17.78 13.18 20.38L13.53 20.33Z" fill="#005CAA"/>
</g>
<g style="mix-blend-mode:darken">
<path d="M14.2301 20.33C14.0701 17.73 14.3401 15.92 15.1201 14.65C15.3746 14.2463 15.7163 13.9046 16.1201 13.65C16.3849 13.4801 16.684 13.3706 16.996 13.3295C17.308 13.2884 17.6252 13.3166 17.9251 13.4121C18.2249 13.5076 18.5 13.668 18.7308 13.882C18.9615 14.096 19.1423 14.3582 19.2601 14.65C19.3882 15.0707 19.4257 15.5138 19.3701 15.95C19.2701 16.79 18.5101 17.1 17.7801 17.31C17.0501 17.52 14.7801 17.78 14.5801 20.38L14.2301 20.33Z" fill="#005CAA"/>
</g>
<g style="mix-blend-mode:darken">
<path d="M13 20.33C13.0371 19.8995 12.9516 19.4672 12.7534 19.0833C12.5552 18.6993 12.2524 18.3792 11.88 18.16C11.4044 17.9023 10.8916 17.7202 10.36 17.62C8.59999 17.22 8.55999 16.74 8.55999 16.74C8.3126 17.0667 8.17871 17.4652 8.17871 17.875C8.17871 18.2848 8.3126 18.6833 8.55999 19.01C8.80341 19.2864 9.12343 19.4844 9.47949 19.5788C9.83555 19.6731 10.2116 19.6596 10.56 19.54C11.65 19.33 12.37 19.25 12.67 20.33H13Z" fill="#005CAA"/>
</g>
<g style="mix-blend-mode:darken">
<path d="M14.75 20.33C14.7129 19.8995 14.7984 19.4672 14.9966 19.0833C15.1948 18.6993 15.4976 18.3792 15.87 18.16C16.345 17.9008 16.858 17.7186 17.39 17.62C19.15 17.22 19.19 16.74 19.19 16.74C19.4374 17.0667 19.5713 17.4652 19.5713 17.875C19.5713 18.2848 19.4374 18.6833 19.19 19.01C18.9466 19.2864 18.6266 19.4844 18.2705 19.5788C17.9145 19.6731 17.5384 19.6596 17.19 19.54C16.1 19.33 15.38 19.25 15.08 20.33H14.75Z" fill="#005CAA"/>
</g>
<g style="mix-blend-mode:darken">
<path d="M13.88 24.26C11.5832 24.2442 9.31864 23.7182 7.25004 22.72H7.17004V22.64C5.17004 17.91 5.17004 13.49 7.17004 9.5V9.44H7.23004C9.28337 8.37572 11.5623 7.8202 13.875 7.8202C16.1878 7.8202 18.4667 8.37572 20.52 9.44H20.59V9.52C22.59 14.18 22.59 18.6 20.59 22.66V22.73H20.51C18.4401 23.7232 16.1759 24.2457 13.88 24.26ZM7.52004 22.34C9.50525 23.2976 11.6809 23.795 13.885 23.795C16.0891 23.795 18.2648 23.2976 20.25 22.34C22.19 18.45 22.18 14.21 20.25 9.74C18.2806 8.72923 16.0987 8.20203 13.885 8.20203C11.6714 8.20203 9.4895 8.72923 7.52004 9.74C5.57004 13.56 5.57004 17.8 7.52004 22.34Z" fill="#005CAA"/>
</g>
<g style="mix-blend-mode:darken">
<path d="M10.4701 21.84L10.3001 22.5H10.1601C10.1647 22.4468 10.1647 22.3932 10.1601 22.34C10.1063 22.3838 10.0418 22.4124 9.97322 22.423C9.90467 22.4335 9.83454 22.4256 9.77007 22.4C9.69413 22.3829 9.6235 22.3475 9.56426 22.297C9.50503 22.2465 9.45898 22.1823 9.43007 22.11C9.36983 21.9557 9.36983 21.7843 9.43007 21.63C9.4769 21.4614 9.57904 21.3135 9.72007 21.21C9.78262 21.1683 9.85377 21.1413 9.92822 21.1309C10.0027 21.1205 10.0785 21.127 10.1501 21.15C10.2698 21.1809 10.3734 21.2559 10.4401 21.36C10.5048 21.4644 10.5297 21.5887 10.5101 21.71H10.2301C10.2301 21.55 10.2301 21.46 10.0801 21.43C10.0459 21.4153 10.0078 21.4122 9.97163 21.4212C9.93549 21.4303 9.90333 21.4509 9.88007 21.48C9.80597 21.5598 9.75122 21.6556 9.72007 21.76C9.69118 21.8579 9.69118 21.9621 9.72007 22.06C9.72975 22.0987 9.74974 22.134 9.77792 22.1622C9.8061 22.1903 9.84141 22.2103 9.88007 22.22C9.93151 22.2401 9.98863 22.2401 10.0401 22.22C10.068 22.2067 10.0924 22.1872 10.1115 22.1629C10.1306 22.1386 10.1438 22.1102 10.1501 22.08L9.91007 22.01L10.0001 21.7L10.4701 21.84Z" fill="#005CAA"/>
</g>
<g style="mix-blend-mode:darken">
<path d="M11.0001 22.14L10.8901 22.63L10.5801 22.56L10.8801 21.33L11.4001 21.44C11.4817 21.4495 11.5602 21.4768 11.6301 21.52C11.6903 21.5524 11.7365 21.6058 11.7601 21.67C11.7845 21.7413 11.7845 21.8187 11.7601 21.89C11.7525 21.9611 11.7221 22.0277 11.6734 22.08C11.6248 22.1323 11.5604 22.1674 11.4901 22.18L11.6401 22.78L11.3001 22.72C11.3001 22.54 11.2201 22.36 11.1901 22.18L11.0001 22.14ZM11.1101 21.61L11.0401 21.93H11.2201C11.2631 21.9377 11.3071 21.9377 11.3501 21.93H11.4301C11.4424 21.8978 11.4424 21.8622 11.4301 21.83C11.4373 21.8143 11.441 21.7973 11.441 21.78C11.441 21.7627 11.4373 21.7457 11.4301 21.73C11.4301 21.73 11.4301 21.73 11.3701 21.67H11.2401L11.1101 21.61Z" fill="#005CAA"/>
</g>
<g style="mix-blend-mode:darken">
<path d="M13.0001 21.65L12.9501 22.44C12.9463 22.5361 12.926 22.6308 12.8901 22.72C12.8463 22.7845 12.7833 22.8335 12.7101 22.86C12.6012 22.8818 12.489 22.8818 12.3801 22.86C12.2738 22.8576 12.1702 22.8265 12.0801 22.77C12.0126 22.7315 11.9599 22.6717 11.9301 22.6C11.909 22.5011 11.909 22.3989 11.9301 22.3L12.0401 21.51L12.3501 21.56L12.2601 22.34C12.2496 22.3894 12.2496 22.4406 12.2601 22.49C12.2682 22.5264 12.2896 22.5585 12.3201 22.58C12.3627 22.5915 12.4075 22.5915 12.4501 22.58C12.4962 22.5903 12.544 22.5903 12.5901 22.58C12.5901 22.58 12.6601 22.58 12.6701 22.51C12.6739 22.4601 12.6739 22.4099 12.6701 22.36L12.7401 21.57L13.0001 21.65Z" fill="#005CAA"/>
</g>
<g style="mix-blend-mode:darken">
<path d="M13.46 22.47V22.94H13.14L13.2 21.67H13.68C13.7631 21.6611 13.8469 21.6611 13.93 21.67C13.9912 21.6984 14.0432 21.7435 14.08 21.8C14.1286 21.8634 14.1565 21.9402 14.16 22.02C14.1742 22.0825 14.1742 22.1475 14.16 22.21C14.1422 22.266 14.1072 22.315 14.06 22.35C14.0212 22.3808 13.9771 22.4045 13.93 22.42C13.8605 22.4316 13.7895 22.4316 13.72 22.42L13.46 22.47ZM13.46 22.24H13.65C13.6751 22.2516 13.7024 22.2577 13.73 22.2577C13.7576 22.2577 13.7849 22.2516 13.81 22.24C13.8239 22.2047 13.8239 22.1653 13.81 22.13C13.8272 22.0884 13.8272 22.0416 13.81 22C13.7617 21.9815 13.7083 21.9815 13.66 22H13.47L13.46 22.24Z" fill="#005CAA"/>
</g>
<g style="mix-blend-mode:darken">
<path d="M14.75 21.64L15.32 21.59C15.3958 21.5735 15.4742 21.5735 15.55 21.59C15.6053 21.6101 15.6562 21.6407 15.7 21.68C15.7412 21.7276 15.7657 21.7872 15.77 21.85C15.7804 21.9158 15.767 21.9832 15.7322 22.04C15.6973 22.0969 15.6434 22.1394 15.58 22.16C15.6618 22.1626 15.7399 22.1945 15.8 22.25C15.8485 22.3002 15.8829 22.3623 15.9 22.43C15.9047 22.4765 15.9 22.5234 15.8863 22.5681C15.8726 22.6127 15.85 22.6542 15.82 22.69C15.7265 22.7825 15.6014 22.8361 15.47 22.84L14.84 22.9L14.75 21.64ZM15.06 21.84V22.12H15.29C15.3184 22.1191 15.3464 22.1124 15.3722 22.1004C15.398 22.0884 15.421 22.0712 15.44 22.05C15.4438 22.0168 15.4438 21.9832 15.44 21.95C15.4454 21.9236 15.4454 21.8964 15.44 21.87C15.4206 21.8631 15.3994 21.8631 15.38 21.87C15.3407 21.8594 15.2993 21.8594 15.26 21.87L15.06 21.84ZM15.06 22.34V22.65H15.3C15.3635 22.6491 15.4243 22.6241 15.47 22.58C15.4805 22.5618 15.4861 22.5411 15.4861 22.52C15.4861 22.4989 15.4805 22.4782 15.47 22.46C15.4697 22.4408 15.4639 22.4221 15.4532 22.4062C15.4426 22.3902 15.4276 22.3777 15.41 22.37C15.3849 22.3584 15.3576 22.3523 15.33 22.3523C15.3024 22.3523 15.2751 22.3584 15.25 22.37L15.06 22.34Z" fill="#005CAA"/>
</g>
<g style="mix-blend-mode:darken">
<path d="M17.0001 21.76L16.7001 21.85C16.7001 21.68 16.5701 21.6 16.4401 21.63C16.3101 21.66 16.2401 21.81 16.2901 22.08C16.2986 22.1947 16.3442 22.3035 16.4201 22.39C16.4457 22.4125 16.4762 22.4287 16.5092 22.4374C16.5421 22.4461 16.5767 22.447 16.6101 22.44C16.7401 22.44 16.8001 22.32 16.7901 22.15H17.0801C17.0925 22.2161 17.091 22.2841 17.0755 22.3496C17.0599 22.415 17.0309 22.4765 16.9901 22.53C16.9072 22.6337 16.7903 22.7045 16.6601 22.73C16.5813 22.7466 16.4999 22.7472 16.4209 22.7318C16.3419 22.7163 16.2668 22.6851 16.2001 22.64C16.1322 22.5847 16.076 22.5164 16.0348 22.4391C15.9936 22.3619 15.9682 22.2772 15.9601 22.19C15.9303 22.0234 15.9548 21.8516 16.0301 21.7C16.0693 21.6325 16.1227 21.5743 16.1865 21.5294C16.2504 21.4845 16.3233 21.454 16.4001 21.44C16.522 21.4053 16.6527 21.4193 16.7646 21.479C16.8765 21.5387 16.9609 21.6394 17.0001 21.76Z" fill="#005CAA"/>
</g>
<g style="mix-blend-mode:darken">
<path d="M17.64 21.1C17.8933 21.4667 18.1533 21.8267 18.42 22.18L18.09 22.29L17.94 22.06L17.52 22.19C17.525 22.2799 17.525 22.3701 17.52 22.46L17.25 22.53C17.25 22.08 17.32 21.64 17.33 21.19L17.64 21.1ZM17.53 21.94L17.8 21.86L17.54 21.47C17.54 21.63 17.54 21.78 17.53 21.94Z" fill="#005CAA"/>
</g>
</g>
</svg>
