<svg width="158" height="180" viewBox="0 0 158 180" fill="none" xmlns="http://www.w3.org/2000/svg">
<g clip-path="url(#clip0_603_629)">
<path d="M75.8232 168.862L75.6219 164.346C75.6009 164.335 75.58 164.324 75.559 164.313C73.4013 163.184 70.9284 165.228 71.6176 167.559C72.2661 169.753 72.7017 172.117 73.8886 174.037C74.5899 175.152 75.5338 176.096 76.6503 176.797C77.7669 177.499 79.0274 177.941 80.3386 178.091L83.0799 179.765C83.456 177.674 83.3731 175.526 82.8368 173.469C82.3005 171.413 81.3235 169.496 79.9733 167.853C79.2067 166.938 78.3276 166.123 77.3569 165.428C76.7003 167.155 75.8232 168.862 75.8232 168.862Z" fill="#F2F2F2"/>
<path d="M51.2799 123.033C46.0022 117.604 38.3541 114.49 30.2966 114.49L29.9858 114.491C24.6785 114.493 19.466 113.089 14.8812 110.423L14.4042 110.145L14.7884 109.751C16.8687 107.604 18.6057 105.151 19.9387 102.478C18.992 103.358 17.8629 104.02 16.6313 104.417C15.3996 104.814 14.0956 104.936 12.8115 104.774C11.4558 104.613 10.1542 104.148 9.00455 103.413C7.85485 102.679 6.88683 101.694 6.17309 100.533C3.35692 95.9755 0 89.5087 0 84.5823C0.0043838 80.4182 0.878519 76.3007 2.56669 72.4922C4.25486 68.6838 6.72003 65.2679 9.80507 62.4623C11.7582 60.7058 13.3182 58.5584 14.3834 56.1602C15.4487 53.762 15.9952 51.1668 15.9874 48.5437L15.9859 48.1704C15.9853 44.717 16.4084 41.2765 17.2457 37.9257L17.3308 37.5873L17.6798 37.5995C19.9307 37.6758 22.1827 37.4877 24.3895 37.0388C22.3196 36.7855 20.2946 36.2484 18.3721 35.4424L17.9966 35.2909L18.124 34.9071C26.9085 29.4821 46.7376 32.2915 58.247 6.02652C67.5796 -15.2708 100.508 24.9322 100.508 48.1704C100.508 50.5416 98.1553 53.6751 99.9165 55.2423C118.956 72.1843 105.819 83.0634 101.677 94.0104C100.694 96.6077 102.825 99.459 102.825 102.269C102.825 102.746 102.813 103.238 102.789 103.732L102.752 104.491L102.117 104.07C100.862 103.249 99.6975 102.297 98.6451 101.229C99.7369 103.735 100.251 106.453 100.151 109.184C100.05 111.915 99.3371 114.588 98.0639 117.008C96.0686 120.764 94.1383 123.453 92.3266 125C86.523 129.954 79.0415 132.509 71.4118 132.143C63.7821 131.778 56.5806 128.519 51.2799 123.033V123.033Z" fill="#E6E6E6"/>
<path d="M83.1553 179.542C83.2851 179.542 83.4104 179.495 83.5083 179.41C83.6063 179.326 83.6703 179.208 83.6885 179.08C83.7115 178.92 85.9556 162.777 83.9401 141.322C82.0788 121.508 76.1015 92.9686 58.1957 69.5298C58.1528 69.4735 58.0992 69.4262 58.038 69.3906C57.9768 69.355 57.9091 69.3318 57.8389 69.3223C57.7686 69.3128 57.6972 69.3172 57.6287 69.3352C57.5601 69.3533 57.4959 69.3846 57.4395 69.4274C57.3831 69.4703 57.3357 69.5238 57.3001 69.5849C57.2645 69.646 57.2413 69.7136 57.2319 69.7836C57.2224 69.8537 57.2269 69.9249 57.2451 69.9933C57.2633 70.0616 57.2948 70.1257 57.3378 70.1819C75.0889 93.4182 81.0181 121.748 82.8662 141.422C84.87 162.752 82.6435 178.769 82.6208 178.929C82.6099 179.005 82.6157 179.083 82.6376 179.157C82.6595 179.23 82.6971 179.299 82.7477 179.357C82.7984 179.415 82.861 179.462 82.9314 179.494C83.0017 179.526 83.0781 179.542 83.1553 179.542V179.542Z" fill="#3F3D56"/>
<path d="M68.5434 102.591C68.6574 102.592 68.7684 102.556 68.8606 102.489C68.9528 102.422 69.0214 102.328 69.0567 102.22C69.0919 102.112 69.092 101.996 69.0568 101.888C69.0216 101.779 68.9531 101.685 68.8609 101.618C68.7959 101.571 62.2455 96.8637 52.4526 93.2873C43.3999 89.9815 29.6339 86.9847 15.462 91.4835C15.3944 91.5048 15.3317 91.5392 15.2775 91.5847C15.2232 91.6303 15.1785 91.686 15.1459 91.7488C15.1133 91.8116 15.0934 91.8801 15.0874 91.9506C15.0814 92.021 15.0893 92.092 15.1108 92.1593C15.1323 92.2267 15.1669 92.2892 15.2127 92.3432C15.2584 92.3972 15.3144 92.4417 15.3773 92.4742C15.4403 92.5066 15.5091 92.5263 15.5798 92.5322C15.6504 92.5381 15.7215 92.53 15.789 92.5085C29.6706 88.1021 43.187 91.0494 52.0818 94.2975C61.7348 97.8228 68.163 102.442 68.2268 102.489C68.3188 102.556 68.4297 102.591 68.5434 102.591Z" fill="#3F3D56"/>
<path d="M93.2248 41.2777C93.2331 41.1644 93.2052 41.0514 93.1451 40.9549C93.085 40.8583 92.9958 40.7833 92.8903 40.7404C92.7848 40.6976 92.6684 40.6891 92.5578 40.7163C92.4472 40.7435 92.3481 40.805 92.2747 40.8918C92.2229 40.9531 87.0436 47.1307 82.762 56.6154C78.8044 65.3833 74.8163 78.8623 78.2944 93.285C78.3278 93.4237 78.4151 93.5434 78.5371 93.6179C78.659 93.6924 78.8057 93.7155 78.9447 93.6821C79.0838 93.6488 79.2038 93.5617 79.2785 93.44C79.3532 93.3184 79.3763 93.1721 79.3429 93.0335C75.9363 78.9063 79.8569 65.6719 83.7455 57.057C87.9659 47.7077 93.0484 41.6454 93.0992 41.5853C93.1726 41.4986 93.2166 41.3909 93.2248 41.2777V41.2777Z" fill="#3F3D56"/>
<path d="M92.4948 69.0127C92.9498 72.6741 95.4934 75.693 99.1924 75.693C100.969 75.693 102.672 74.9892 103.928 73.7364C105.184 72.4836 105.89 70.7844 105.89 69.0127C105.89 65.3232 102.876 62.6735 99.1924 62.3323C95.2844 61.9704 91.9107 64.3119 92.4948 69.0127Z" fill="#2F2E41"/>
<path d="M102.294 176.6L104.845 176.6L106.058 166.787L102.294 166.787L102.294 176.6Z" fill="#FFB6B6"/>
<path d="M102.205 179.254L110.048 179.253V179.154C110.048 178.347 109.726 177.572 109.154 177.001C108.581 176.43 107.805 176.11 106.995 176.109H106.995L105.562 175.025L102.889 176.11L102.205 176.11L102.205 179.254Z" fill="#2F2E41"/>
<path d="M92.2481 176.6L94.7986 176.6L96.0119 166.787L92.2476 166.787L92.2481 176.6Z" fill="#FFB6B6"/>
<path d="M92.1583 179.254L100.001 179.253V179.154C100.001 178.347 99.6798 177.572 99.1073 177.001C98.5348 176.43 97.7583 176.11 96.9487 176.109H96.9485L95.5159 175.025L92.8429 176.11L92.1582 176.11L92.1583 179.254Z" fill="#2F2E41"/>
<path d="M111.071 115.143L112.875 121.309L110.75 147.426C110.75 147.426 111.844 149.058 111.071 149.058C110.299 149.058 109.308 149.421 109.932 150.396C110.556 151.371 108.422 154.872 108.422 154.872L105.404 173.467L101.558 173.411C101.558 173.411 99.6032 172.324 100.7 171.226C101.798 170.127 102.571 170.127 101.54 169.099C100.51 168.072 100.51 168.381 100.51 167.584C100.51 166.787 99.4774 157.046 101.926 153.309L101.188 138.074L99.4505 153.018L95.8729 172.954L92.1682 172.923C92.1682 172.923 90.457 171.278 90.4601 170.06C90.4633 168.843 91.5174 168.741 90.7327 168.021C89.9481 167.301 89.9481 156.236 92.2665 150.086C92.2665 150.086 93.578 146.65 92.2635 145.472C90.9491 144.295 92.2619 142.948 92.2619 142.948C92.2619 142.948 94.3438 142.197 92.26 140.034C90.1763 137.872 92.2488 122.576 92.2488 122.576C92.2488 122.576 89.9709 116.401 92.2779 113.973C94.5849 111.546 111.071 115.143 111.071 115.143Z" fill="#2F2E41"/>
<path d="M78.9551 125.767L82.1723 118.012L84.7071 119.417L83.1763 127.306C83.3296 127.805 83.3401 128.338 83.2066 128.843C83.0731 129.349 82.8009 129.807 82.4207 130.167C82.0404 130.526 81.5671 130.773 81.054 130.879C80.5409 130.985 80.0083 130.946 79.5161 130.766C79.0239 130.587 78.5917 130.274 78.2679 129.863C77.9442 129.452 77.7418 128.959 77.6835 128.44C77.6252 127.921 77.7133 127.395 77.938 126.923C78.1626 126.451 78.5148 126.051 78.9551 125.767V125.767Z" fill="#FFB6B6"/>
<path d="M132.942 64.444L128.046 71.2702L125.896 69.3293L129.18 61.9917C129.144 61.4702 129.254 60.9492 129.499 60.4871C129.744 60.025 130.113 59.6402 130.565 59.3759C131.017 59.1116 131.535 58.9783 132.058 58.9911C132.582 59.0038 133.092 59.162 133.531 59.448C133.969 59.7339 134.319 60.1362 134.541 60.6096C134.763 61.0831 134.848 61.6089 134.787 62.128C134.726 62.6471 134.521 63.1388 134.195 63.5479C133.869 63.9571 133.435 64.2674 132.942 64.444V64.444Z" fill="#FFB6B6"/>
<path d="M111.557 115.775C114.732 120.687 98.7722 126.921 92.6482 124.418C91.5759 123.98 87.8872 122.533 90.4085 120.526C92.9299 118.519 90.1162 118.237 90.0497 116.93C90.0052 116.057 90.6832 114.141 89.9758 114.223C89.2685 114.305 88.4406 113.097 89.9811 112.578C91.5216 112.058 89.9976 111.584 90.0111 111.091C90.1585 105.706 94.3001 97.1423 94.3001 97.1423L86.8372 116.17C86.8372 116.17 86.8923 119.462 85.9406 118.456C84.9889 117.45 85.0582 120.706 85.0582 120.706C85.0582 120.706 83.643 121.691 84.4568 122.239C85.2706 122.788 83.5807 124.473 83.5807 124.473L79.6377 124.192C79.6377 124.192 79.6994 121.271 80.3727 120.625C81.0459 119.978 80.7152 118.962 80.7152 118.962C80.7152 118.962 82.4681 117.414 81.2929 116.158C79.7816 114.541 85.292 87.2444 87.1936 87.5148C87.4625 86.2097 88.0879 85.0041 89.0008 84.0314C89.9137 83.0587 91.0784 82.3567 92.3663 82.0031L96.625 80.8335L97.3812 77.8408H103.378L104.422 79.8072L108.981 81.8593C109.84 80.6508 110.482 79.3773 113.998 78.9645C113.998 78.9645 123.473 70.3656 123.011 69.6942C122.548 69.0228 124.017 67.4509 124.017 67.4509C124.017 67.4509 125.271 67.0414 124.563 66.8227C123.856 66.6041 125.194 66.0986 125.194 66.0986C125.194 66.0986 126.433 65.7739 125.848 65.3462C125.264 64.9186 127.799 64.6377 127.799 64.6377L131.087 67.3142L130.423 68.4384C130.423 68.4384 130.828 69.9692 130.299 69.4103C129.77 68.8515 129.671 70.4733 129.671 70.4733C129.671 70.4733 129.4 72.2492 127.799 72.7843C126.197 73.3194 124.982 78.4026 124.982 78.4026C121.205 83.3017 116.746 87.1235 111.463 89.6393C113.522 91.9966 111.557 115.775 111.557 115.775Z" fill="#69ABFF"/>
<path d="M99.9328 76.0894C103.213 76.0894 105.872 73.4372 105.872 70.1656C105.872 66.8939 103.213 64.2417 99.9328 64.2417C96.6527 64.2417 93.9937 66.8939 93.9937 70.1656C93.9937 73.4372 96.6527 76.0894 99.9328 76.0894Z" fill="#FFB6B6"/>
<path d="M93.7829 70.8109C93.971 72.0982 95.0709 73.8942 94.8133 73.8942C94.5557 73.8942 92.7242 68.5876 94.5557 68.2416C95.8842 67.9906 96.1812 68.2107 97.4228 67.6738L97.2477 67.8382C98.0694 68.4343 99.2131 68.0669 100.151 67.6789C101.091 67.2935 102.232 66.9261 103.057 67.5196C103.574 67.8921 103.793 68.5396 104.115 69.0895C104.437 69.6419 105.032 70.1635 105.645 69.9939C106.137 69.8577 106.421 69.3079 106.418 68.7991C106.416 68.2904 105.752 67.8064 105.975 67.35C106.638 65.9974 106.042 65.0754 104.597 64.4389C104.071 64.3593 103.546 64.2779 103.02 64.1948C103.296 63.8144 103.63 63.4797 104.01 63.2031C103.849 62.7925 103.572 62.4379 103.211 62.183C102.791 61.9338 102.271 61.9518 101.784 61.9775C100.697 62.034 99.6107 62.0905 98.5254 62.147C97.7216 62.1881 96.8896 62.237 96.1709 62.6044C95.2744 63.0643 94.6871 63.961 94.2595 64.8731C93.3012 66.9235 93.4532 68.573 93.7829 70.8109Z" fill="#2F2E41"/>
<path d="M69.0762 179.921L127.487 180C127.569 180 127.647 179.968 127.704 179.91C127.762 179.853 127.794 179.775 127.794 179.694C127.794 179.613 127.762 179.535 127.704 179.478C127.647 179.42 127.569 179.388 127.487 179.388L69.0762 179.309C68.9949 179.309 68.9169 179.341 68.8594 179.399C68.8018 179.456 68.7695 179.534 68.7695 179.615C68.7695 179.696 68.8018 179.774 68.8594 179.831C68.9169 179.889 68.9949 179.921 69.0762 179.921V179.921Z" fill="#CACACA"/>
<path d="M47.9504 153.253C48.0581 152.515 47.283 151.792 46.2191 151.637C45.1552 151.483 44.2055 151.956 44.0978 152.694C43.9901 153.432 44.7653 154.156 45.8292 154.31C46.893 154.465 47.8428 153.991 47.9504 153.253Z" fill="#E6E6E6"/>
<path d="M60.6169 152.02C60.7246 151.282 59.9495 150.559 58.8856 150.404C57.8217 150.25 56.872 150.723 56.7643 151.461C56.6566 152.199 57.4318 152.923 58.4956 153.077C59.5595 153.232 60.5093 152.759 60.6169 152.02Z" fill="#3F3D56"/>
<path d="M44.4822 143.025C44.5898 142.287 43.8147 141.564 42.7508 141.409C41.687 141.255 40.7372 141.728 40.6295 142.466C40.5219 143.204 41.297 143.928 42.3609 144.082C43.4248 144.237 44.3745 143.763 44.4822 143.025Z" fill="#FF6584"/>
<path d="M38.9778 138.836C38.9829 138.158 38.6039 137.606 38.1312 137.602C37.6586 137.599 37.2713 138.145 37.2661 138.823C37.261 139.5 37.64 140.053 38.1126 140.056C38.5853 140.06 38.9726 139.513 38.9778 138.836Z" fill="#E6E6E6"/>
<path d="M37.1115 131.032C37.1167 130.354 36.7377 129.802 36.265 129.798C35.7924 129.795 35.4051 130.341 35.3999 131.019C35.3948 131.697 35.7738 132.249 36.2464 132.253C36.7191 132.256 37.1064 131.71 37.1115 131.032Z" fill="#3F3D56"/>
<path d="M51.6262 144.766C51.6313 144.088 51.2523 143.536 50.7797 143.532C50.307 143.529 49.9197 144.075 49.9146 144.753C49.9094 145.431 50.2884 145.983 50.7611 145.986C51.2337 145.99 51.621 145.444 51.6262 144.766Z" fill="#E6E6E6"/>
<path d="M45.5051 147.814C45.5102 147.136 45.1312 146.584 44.6586 146.581C44.1859 146.577 43.7986 147.124 43.7935 147.801C43.7883 148.479 44.1673 149.031 44.64 149.035C45.1126 149.038 45.4999 148.492 45.5051 147.814Z" fill="#FF6584"/>
<path d="M54.0256 153.448C54.0307 152.77 53.6517 152.218 53.1791 152.214C52.7065 152.211 52.3191 152.757 52.314 153.435C52.3089 154.113 52.6879 154.665 53.1605 154.669C53.6331 154.672 54.0205 154.126 54.0256 153.448Z" fill="#3F3D56"/>
<path d="M145.323 113.685C145.431 112.947 144.656 112.223 143.592 112.069C142.528 111.914 141.579 112.388 141.471 113.126C141.363 113.864 142.138 114.588 143.202 114.742C144.266 114.896 145.216 114.423 145.323 113.685Z" fill="#E6E6E6"/>
<path d="M157.99 112.452C158.098 111.714 157.323 110.99 156.259 110.836C155.195 110.681 154.245 111.155 154.137 111.893C154.03 112.631 154.805 113.355 155.869 113.509C156.933 113.663 157.882 113.19 157.99 112.452Z" fill="#3F3D56"/>
<path d="M141.855 103.457C141.962 102.719 141.187 101.995 140.123 101.841C139.06 101.686 138.11 102.16 138.002 102.898C137.894 103.636 138.67 104.36 139.733 104.514C140.797 104.668 141.747 104.195 141.855 103.457Z" fill="#FF6584"/>
<path d="M136.351 99.2673C136.356 98.5896 135.977 98.0374 135.504 98.0338C135.032 98.0302 134.644 98.5767 134.639 99.2544C134.634 99.9321 135.013 100.484 135.486 100.488C135.958 100.491 136.346 99.945 136.351 99.2673Z" fill="#E6E6E6"/>
<path d="M134.485 91.4636C134.49 90.7859 134.111 90.2337 133.638 90.2301C133.165 90.2265 132.778 90.773 132.773 91.4507C132.768 92.1284 133.147 92.6806 133.619 92.6842C134.092 92.6878 134.479 92.1413 134.485 91.4636Z" fill="#3F3D56"/>
<path d="M148.999 105.197C149.004 104.52 148.625 103.968 148.153 103.964C147.68 103.96 147.293 104.507 147.288 105.185C147.282 105.862 147.661 106.415 148.134 106.418C148.607 106.422 148.994 105.875 148.999 105.197Z" fill="#E6E6E6"/>
<path d="M142.878 108.246C142.883 107.568 142.504 107.016 142.032 107.012C141.559 107.009 141.172 107.555 141.167 108.233C141.161 108.911 141.54 109.463 142.013 109.466C142.486 109.47 142.873 108.924 142.878 108.246Z" fill="#FF6584"/>
<path d="M151.399 113.88C151.404 113.202 151.025 112.65 150.552 112.646C150.08 112.643 149.692 113.189 149.687 113.867C149.682 114.544 150.061 115.097 150.534 115.1C151.006 115.104 151.394 114.557 151.399 113.88Z" fill="#3F3D56"/>
<path d="M98.1824 40.4579C98.29 39.7197 97.5149 38.9961 96.451 38.8417C95.3871 38.6873 94.4374 39.1606 94.3297 39.8988C94.2221 40.6369 94.9972 41.3605 96.0611 41.5149C97.125 41.6693 98.0747 41.196 98.1824 40.4579Z" fill="white"/>
<path d="M110.849 39.2254C110.957 38.4873 110.182 37.7637 109.118 37.6093C108.054 37.4549 107.104 37.9282 106.997 38.6663C106.889 39.4045 107.664 40.1281 108.728 40.2825C109.792 40.4369 110.742 39.9636 110.849 39.2254Z" fill="#3F3D56"/>
<path d="M94.7141 30.2298C94.8218 29.4916 94.0466 28.7681 92.9828 28.6137C91.9189 28.4593 90.9692 28.9325 90.8615 29.6707C90.7538 30.4089 91.5289 31.1325 92.5928 31.2869C93.6567 31.4413 94.6064 30.968 94.7141 30.2298Z" fill="#FF6584"/>
<path d="M89.2102 26.0403C89.2153 25.3626 88.8363 24.8103 88.3637 24.8068C87.891 24.8032 87.5037 25.3497 87.4986 26.0273C87.4934 26.705 87.8724 27.2573 88.3451 27.2608C88.8177 27.2644 89.205 26.7179 89.2102 26.0403Z" fill="#E6E6E6"/>
<path d="M87.3435 18.2365C87.3486 17.5589 86.9696 17.0066 86.497 17.003C86.0243 16.9995 85.637 17.546 85.6319 18.2236C85.6267 18.9013 86.0057 19.4536 86.4784 19.4571C86.951 19.4607 87.3383 18.9142 87.3435 18.2365Z" fill="#3F3D56"/>
<path d="M101.858 31.9704C101.863 31.2928 101.484 30.7405 101.012 30.7369C100.539 30.7334 100.152 31.2798 100.147 31.9575C100.141 32.6352 100.52 33.1875 100.993 33.191C101.466 33.1946 101.853 32.6481 101.858 31.9704Z" fill="#E6E6E6"/>
<path d="M95.737 35.0188C95.7422 34.3411 95.3632 33.7888 94.8905 33.7853C94.4179 33.7817 94.0306 34.3282 94.0254 35.0059C94.0203 35.6835 94.3993 36.2358 94.8719 36.2394C95.3446 36.2429 95.7319 35.6964 95.737 35.0188Z" fill="#FF6584"/>
<path d="M104.258 40.6526C104.263 39.9749 103.884 39.4226 103.412 39.4191C102.939 39.4155 102.552 39.962 102.546 40.6396C102.541 41.3173 102.92 41.8696 103.393 41.8732C103.866 41.8767 104.253 41.3302 104.258 40.6526Z" fill="#3F3D56"/>
</g>
<defs>
<clipPath id="clip0_603_629">
<rect width="158" height="180" fill="white"/>
</clipPath>
</defs>
</svg>
