<svg width="20" height="20" viewBox="0 0 20 20" fill="none" xmlns="http://www.w3.org/2000/svg">
<path d="M10.8484 0.751863C10.3798 0.283233 9.62 0.283233 9.15137 0.751863L0.751374 9.15186C0.282745 9.62049 0.282745 10.3803 0.751374 10.8489C1.22 11.3175 1.9798 11.3175 2.44843 10.8489L2.7999 10.4974V18.4004C2.7999 19.0631 3.33716 19.6004 3.9999 19.6004H6.3999C7.06264 19.6004 7.5999 19.0631 7.5999 18.4004V16.0004C7.5999 15.3376 8.13716 14.8004 8.7999 14.8004H11.1999C11.8626 14.8004 12.3999 15.3376 12.3999 16.0004V18.4004C12.3999 19.0631 12.9372 19.6004 13.5999 19.6004H15.9999C16.6626 19.6004 17.1999 19.0631 17.1999 18.4004V10.4974L17.5514 10.8489C18.02 11.3175 18.7798 11.3175 19.2484 10.8489C19.7171 10.3803 19.7171 9.62049 19.2484 9.15186L10.8484 0.751863Z" fill="#9E9E9E"/>
</svg>
