<svg width="134" height="116" viewBox="0 0 134 116" fill="none" xmlns="http://www.w3.org/2000/svg">
<g clip-path="url(#clip0_73_1200)">
<path d="M42.7991 15.9245C41.7219 10.1595 43.4178 3.60088 48.1314 0.111328C47.8642 6.48347 49.8596 12.7447 53.7645 17.7873C55.2775 19.7265 57.1622 21.7259 57.1037 24.1849C57.0673 25.7149 56.2398 27.1402 55.1494 28.2141C54.0589 29.2879 52.7156 30.0621 51.3884 30.8243L51.1818 31.1456C47.2912 26.7572 43.8763 21.6895 42.7991 15.9245Z" fill="#F0F0F0"/>
<path d="M48.2172 0.199422C46.2369 4.63147 45.7034 9.57482 46.6925 14.3273C46.8873 15.3542 47.2427 16.344 47.7457 17.2602C48.2645 18.1369 49.0086 18.8586 49.9007 19.3504C50.7232 19.8257 51.6197 20.2167 52.3124 20.8836C52.6619 21.2303 52.9342 21.647 53.1114 22.1062C53.2886 22.5655 53.3667 23.0571 53.3406 23.5487C53.3074 24.7753 52.8355 25.9168 52.3352 27.0171C51.7797 28.2387 51.1834 29.4988 51.2194 30.8723C51.2238 31.0387 50.9653 31.0357 50.961 30.8695C50.8983 28.48 52.6259 26.5609 53.0108 24.2679C53.1904 23.198 53.0487 22.0675 52.2965 21.2382C51.6387 20.513 50.7147 20.109 49.8777 19.635C49.0004 19.1679 48.2508 18.4932 47.6944 17.6697C47.1464 16.782 46.7534 15.8076 46.5323 14.7881C45.998 12.5009 45.8266 10.1438 46.0245 7.80335C46.2354 5.13092 46.902 2.51428 47.9954 0.0666277C48.0631 -0.0848382 48.2845 0.0489428 48.2172 0.199418L48.2172 0.199422Z" fill="white"/>
<path d="M46.284 12.8154C45.4641 12.8731 44.6504 12.6375 43.9882 12.1506C43.326 11.6638 42.8584 10.9574 42.6689 10.1576C42.6311 9.99563 42.881 9.92931 42.9189 10.0915C43.0939 10.8366 43.5295 11.4945 44.1471 11.9466C44.7647 12.3987 45.5235 12.6152 46.2867 12.5569C46.4526 12.5445 46.4489 12.803 46.284 12.8154Z" fill="white"/>
<path d="M49.4518 19.1644C50.5649 17.9058 51.1626 16.2739 51.1259 14.5941C51.1221 14.4277 51.3806 14.4306 51.3843 14.5968C51.4193 16.3449 50.7938 18.0419 49.6327 19.3491C49.5219 19.4736 49.3417 19.2883 49.4518 19.1644Z" fill="white"/>
<path d="M46.5383 5.29186C46.8602 5.33564 47.1879 5.29878 47.492 5.1846C47.7962 5.07041 48.0672 4.88248 48.2807 4.63768C48.3898 4.51181 48.57 4.69732 48.4616 4.82236C48.2244 5.09173 47.9248 5.29891 47.5891 5.42581C47.2534 5.55271 46.8917 5.59546 46.5356 5.55033C46.5017 5.54889 46.4696 5.53458 46.4458 5.51033C46.4221 5.48607 46.4084 5.45368 46.4077 5.41974C46.4082 5.38552 46.4223 5.35289 46.4467 5.32894C46.4712 5.305 46.5041 5.29167 46.5383 5.29186Z" fill="white"/>
<path d="M67.407 4.88011C67.3411 4.96063 67.2752 5.04117 67.2099 5.12381C66.3295 6.21105 65.5388 7.36802 64.8458 8.58331C64.7907 8.67642 64.7363 8.7716 64.684 8.8661C63.0455 11.8118 61.9681 15.0361 61.5066 18.3751C61.3242 19.7039 61.2431 21.0447 61.2641 22.3858C61.2933 24.238 61.4722 26.2439 60.9045 27.9473C60.8472 28.1257 60.779 28.3004 60.7002 28.4704L51.5897 31.373C51.5657 31.3692 51.5423 31.3675 51.5181 31.3638L51.1597 31.4963C51.1538 31.4272 51.1491 31.3554 51.1432 31.2863C51.1396 31.2463 51.1381 31.2055 51.1345 31.1655C51.1327 31.1386 51.131 31.1116 51.1279 31.0874C51.1273 31.0785 51.1268 31.0695 51.1268 31.0626C51.1237 31.0384 51.1234 31.0156 51.1209 30.9935C51.0938 30.5923 51.0687 30.1904 51.0479 29.7872C51.0473 29.7852 51.0473 29.7852 51.0486 29.7824C50.8923 26.7116 50.9909 23.6007 51.5586 20.6036C51.5757 20.5134 51.592 20.4212 51.6133 20.3297C51.8766 18.9802 52.2499 17.6545 52.7292 16.3658C52.994 15.661 53.2943 14.97 53.6289 14.2956C54.4968 12.5546 55.6332 10.9609 56.9964 9.57307C59.7143 6.80677 63.2867 4.9405 67.1145 4.88173C67.2125 4.88029 67.3084 4.87946 67.407 4.88011Z" fill="#F0F0F0"/>
<path d="M67.4236 5.00182C63.174 7.34827 59.7718 10.9741 57.7002 15.3642C57.2375 16.3014 56.9254 17.3056 56.7754 18.34C56.6618 19.3523 56.8214 20.3766 57.2375 21.3064C57.6081 22.1811 58.0885 23.033 58.2401 23.9826C58.3104 24.4698 58.277 24.9664 58.1419 25.4398C58.0069 25.9132 57.7733 26.3527 57.4565 26.7295C56.6915 27.6889 55.6274 28.3162 54.5655 28.8935C53.3865 29.5345 52.1517 30.1816 51.3535 31.2999C51.2568 31.4354 51.0522 31.2774 51.1488 31.1421C52.5375 29.1964 55.0723 28.7043 56.7601 27.1053C57.5477 26.3592 58.1152 25.3712 58.0139 24.2561C57.9254 23.2811 57.4307 22.4022 57.0478 21.5197C56.6286 20.6186 56.4363 19.6286 56.4879 18.6361C56.5847 17.5974 56.8577 16.5828 57.2949 15.6357C58.2454 13.4877 59.5276 11.5026 61.0947 9.75296C62.8722 7.7462 64.9798 6.05829 67.3264 4.76225C67.4717 4.68209 67.5679 4.92219 67.4236 5.00182Z" fill="white"/>
<path d="M58.2841 13.9111C57.5947 13.4635 57.0869 12.7855 56.8512 11.9981C56.6156 11.2106 56.6676 10.3651 56.9978 9.61244C57.0652 9.46038 57.3046 9.55788 57.2372 9.71015C56.9284 10.4104 56.8801 11.1981 57.101 11.9309C57.3219 12.6637 57.7974 13.2934 58.4419 13.7063C58.5818 13.7962 58.4232 14.0005 58.2841 13.9111Z" fill="white"/>
<path d="M56.9911 20.8882C58.6376 20.5533 60.0974 19.6102 61.0794 18.2469C61.1766 18.1118 61.3812 18.2697 61.2841 18.4047C60.2596 19.8215 58.7385 20.7998 57.0243 21.1445C56.8609 21.1773 56.8286 20.9207 56.9911 20.8882V20.8882Z" fill="white"/>
<path d="M63.0173 8.0569C63.2479 8.28565 63.5318 8.45353 63.8433 8.54547C64.1549 8.6374 64.4844 8.65051 64.8023 8.58362C64.9652 8.54883 64.9974 8.80539 64.8356 8.83995C64.484 8.91222 64.1201 8.8973 63.7756 8.79649C63.4311 8.69567 63.1166 8.51204 62.8595 8.26163C62.8333 8.24006 62.8163 8.20931 62.8119 8.17564C62.8075 8.14197 62.8162 8.10791 62.836 8.08037C62.857 8.05336 62.8879 8.03575 62.9218 8.03135C62.9558 8.02695 62.9901 8.03613 63.0173 8.05688V8.0569Z" fill="white"/>
<path d="M94.8036 43.7019C94.8276 43.8075 94.8433 43.915 94.8504 44.0231L103.265 48.8774L105.31 47.7L107.49 50.5543L104.072 52.9906C103.796 53.1874 103.464 53.2893 103.125 53.2811C102.786 53.2728 102.458 53.1548 102.192 52.9448L93.5155 46.0997C93.124 46.2446 92.6975 46.2669 92.293 46.1636C91.8884 46.0603 91.5249 45.8362 91.2508 45.5213C90.9767 45.2063 90.8049 44.8154 90.7584 44.4004C90.7119 43.9855 90.7928 43.5662 90.9904 43.1984C91.188 42.8305 91.4929 42.5316 91.8645 42.3413C92.2362 42.1509 92.657 42.0783 93.0709 42.1329C93.4849 42.1876 93.8724 42.367 94.1819 42.6472C94.4914 42.9275 94.7082 43.2953 94.8036 43.7019Z" fill="#FFB6B6"/>
<path d="M103.382 48.3421C103.408 48.2182 103.462 48.1016 103.537 48.0002C103.613 47.8988 103.71 47.8149 103.821 47.7543L107.706 45.6377C108.223 45.2472 108.875 45.0778 109.517 45.1667C110.159 45.2556 110.739 45.5954 111.131 46.1117C111.523 46.6281 111.694 47.2787 111.607 47.921C111.519 48.5632 111.181 49.1447 110.666 49.5378L107.552 52.7008C107.463 52.7911 107.356 52.8611 107.238 52.9062C107.119 52.9512 106.993 52.9703 106.866 52.9619C106.74 52.9536 106.617 52.9182 106.505 52.858C106.394 52.7978 106.297 52.7143 106.22 52.6132L103.54 49.059C103.463 48.9578 103.41 48.8415 103.382 48.7177C103.355 48.594 103.355 48.4659 103.382 48.3421Z" fill="#3F3D56"/>
<path d="M110.146 36.208C110.705 34.4267 111.976 32.793 113.734 32.1908C115.492 31.5886 118.066 32.5059 119.388 33.823C121.805 36.2323 121.88 39.1816 120.219 41.7971C119.888 41.7796 118.748 41.7667 118.414 41.7542L117.941 40.1777V41.7386C115.331 41.658 112.614 41.7085 109.896 41.7607C109.652 39.9089 109.587 37.9894 110.146 36.208Z" fill="#2F2E41"/>
<path d="M109.574 110.807H107.194L106.062 101.626L109.575 101.626L109.574 110.807Z" fill="#FFB6B6"/>
<path d="M124.244 110.807H121.864L120.732 101.626L124.245 101.626L124.244 110.807Z" fill="#FFB6B6"/>
<path d="M117.294 54.4164L117.833 55.8187L117.725 57.2212L107.17 60.8773L107.693 54.7402L108.88 53.3379L117.294 54.4164Z" fill="#FFB6B6"/>
<path d="M113.956 41.797C116.039 41.797 117.726 40.109 117.726 38.0269C117.726 35.9448 116.039 34.2568 113.956 34.2568C111.874 34.2568 110.186 35.9448 110.186 38.0269C110.186 40.109 111.874 41.797 113.956 41.797Z" fill="#FFB7B7"/>
<path d="M119.657 60.8516V63.2476C119.657 63.2476 122.462 66.8923 120.952 69.6969L125.279 107.021H120.748L113.185 75.5218L109.961 106.374H106.078L105.615 81.8367C105.493 75.3826 106.571 68.9619 108.793 62.9012V62.9012L119.657 60.8516Z" fill="#2F2E41"/>
<path d="M111.366 33.1179C112.09 32.6763 112.92 32.4374 113.768 32.4262C114.617 32.415 115.452 32.6319 116.188 33.0543C116.924 33.4767 117.533 34.089 117.951 34.8272C118.369 35.5653 118.581 36.4023 118.565 37.2506C116.458 37.3475 114.244 37.3727 111.999 37.3771L111.469 36.0787L111.156 37.378C110.472 37.378 109.787 37.3771 109.1 37.3753C109.072 36.5295 109.267 35.6911 109.664 34.944C110.062 34.1968 110.649 33.5672 111.366 33.1179Z" fill="#2F2E41"/>
<path d="M110.639 115.327H108.95L108.648 113.732L107.876 115.327H103.396C103.182 115.327 102.973 115.258 102.8 115.131C102.627 115.004 102.499 114.824 102.435 114.619C102.371 114.414 102.374 114.194 102.444 113.991C102.514 113.788 102.648 113.613 102.824 113.491L106.402 111.02V109.408L110.164 109.633L110.639 115.327Z" fill="#2F2E41"/>
<path d="M125.525 115.327H123.836L123.534 113.732L122.762 115.327H118.282C118.068 115.327 117.859 115.258 117.686 115.131C117.513 115.004 117.385 114.824 117.321 114.619C117.257 114.414 117.26 114.194 117.33 113.991C117.4 113.788 117.534 113.613 117.71 113.491L121.288 111.02V109.408L125.05 109.633L125.525 115.327Z" fill="#2F2E41"/>
<path d="M121.373 68.5354C121.582 65.6558 121.366 62.761 120.732 59.9444C119.931 56.3897 118.914 51.8666 118.894 51.7496C118.894 51.7474 118.893 51.745 118.893 51.7427L118.583 45.1172C118.582 45.098 118.574 45.0798 118.56 45.0663C118.547 45.0528 118.529 45.0449 118.509 45.0443L116.364 44.9722C116.344 44.9715 116.326 44.9631 116.312 44.9489C116.298 44.9346 116.29 44.9155 116.29 44.8956C116.29 44.7358 116.259 44.5776 116.198 44.4299C116.136 44.2823 116.047 44.1481 115.934 44.0351C115.821 43.9221 115.687 43.8325 115.539 43.7713C115.391 43.7102 115.233 43.6787 115.073 43.6787H110.789C110.511 43.6788 110.243 43.7802 110.035 43.9639C109.827 44.1475 109.693 44.4007 109.659 44.6761C109.657 44.695 109.648 44.7126 109.634 44.7252C109.619 44.7378 109.601 44.7446 109.582 44.7442L107.915 44.6881C107.898 44.6876 107.882 44.6925 107.868 44.7022C107.854 44.7118 107.844 44.7257 107.839 44.7417L107.723 45.1101C106.04 50.5299 105.573 56.2541 106.355 61.8751C106.556 63.3709 106.465 65.62 106.389 66.873C106.381 66.9955 106.398 67.1183 106.438 67.2343C106.478 67.3503 106.54 67.4573 106.622 67.5491C106.703 67.6408 106.802 67.7156 106.913 67.7691C107.023 67.8226 107.143 67.8537 107.266 67.8607C110.365 68.039 119.14 72.285 121.241 70.2578C121.246 70.253 121.302 69.5051 121.373 68.5354Z" fill="#3F3D56"/>
<path d="M104.184 43.7019C104.208 43.8075 104.224 43.915 104.231 44.0231L112.646 48.8774L114.691 47.7L116.871 50.5543L113.453 52.9906C113.177 53.1874 112.844 53.2893 112.505 53.2811C112.166 53.2728 111.839 53.1548 111.573 52.9448L102.896 46.0997C102.505 46.2446 102.078 46.2669 101.674 46.1636C101.269 46.0603 100.906 45.8362 100.632 45.5213C100.358 45.2063 100.186 44.8154 100.139 44.4004C100.093 43.9855 100.174 43.5662 100.371 43.1984C100.569 42.8305 100.874 42.5316 101.245 42.3413C101.617 42.1509 102.038 42.0783 102.452 42.1329C102.866 42.1876 103.253 42.367 103.563 42.6472C103.872 42.9275 104.089 43.2953 104.184 43.7019Z" fill="#FFB6B6"/>
<path d="M112.763 48.3417C112.789 48.2179 112.842 48.1013 112.918 47.9998C112.994 47.8984 113.091 47.8145 113.202 47.754L117.087 45.6373C117.604 45.247 118.255 45.0778 118.897 45.1667C119.539 45.2557 120.12 45.5955 120.511 46.1117C120.903 46.628 121.074 47.2785 120.987 47.9207C120.9 48.5628 120.562 49.1443 120.047 49.5374L116.933 52.7004C116.844 52.7907 116.737 52.8608 116.618 52.9058C116.5 52.9509 116.373 52.9699 116.247 52.9616C116.121 52.9533 115.998 52.9178 115.886 52.8577C115.775 52.7975 115.677 52.714 115.601 52.6128L112.92 49.0586C112.844 48.9575 112.791 48.8411 112.763 48.7174C112.736 48.5937 112.736 48.4655 112.763 48.3417Z" fill="#3F3D56"/>
<path d="M9.81689 102.247C15.2386 102.247 19.6338 97.8519 19.6338 92.4302C19.6338 87.0085 15.2386 82.6133 9.81689 82.6133C4.39517 82.6133 0 87.0085 0 92.4302C0 97.8519 4.39517 102.247 9.81689 102.247Z" fill="#F0F0F0"/>
<path d="M96.566 58.3643L25.4245 91.0268C24.4118 91.4903 23.2567 91.5333 22.2124 91.1462C21.1682 90.7591 20.3201 89.9736 19.8543 88.962L2.29831 50.7236C1.83478 49.711 1.79186 48.5558 2.17895 47.5116C2.56605 46.4673 3.35155 45.6192 4.36314 45.1534L75.5047 12.4909C76.5173 12.0274 77.6724 11.9845 78.7167 12.3716C79.7609 12.7587 80.609 13.5442 81.0748 14.5558L98.6308 52.7941C99.0944 53.8068 99.1373 54.9619 98.7502 56.0062C98.3631 57.0505 97.5776 57.8985 96.566 58.3643Z" fill="white"/>
<path d="M5.54645 47.7308C5.21782 47.8821 4.96264 48.1576 4.83689 48.4968C4.71114 48.8361 4.72508 49.2114 4.87567 49.5403L22.4317 87.7787C22.583 88.1074 22.8585 88.3625 23.1977 88.4883C23.537 88.614 23.9123 88.6001 24.2412 88.4495L95.3828 55.787C95.7114 55.6357 95.9666 55.3602 96.0923 55.021C96.2181 54.6817 96.2042 54.3065 96.0536 53.9775L78.4976 15.7391C78.3462 15.4104 78.0707 15.1553 77.7315 15.0295C77.3923 14.9038 77.017 14.9177 76.688 15.0683L5.54645 47.7308Z" fill="#E4E4E4"/>
<path d="M96.566 58.3643L25.4245 91.0268C24.4118 91.4903 23.2567 91.5333 22.2124 91.1462C21.1682 90.7591 20.3201 89.9736 19.8543 88.962L2.29831 50.7236C1.83478 49.711 1.79186 48.5558 2.17895 47.5116C2.56605 46.4673 3.35155 45.6192 4.36314 45.1534L75.5047 12.4909C76.5173 12.0274 77.6724 11.9845 78.7167 12.3716C79.7609 12.7587 80.609 13.5442 81.0748 14.5558L98.6308 52.7941C99.0944 53.8068 99.1373 54.9619 98.7502 56.0062C98.3631 57.0505 97.5776 57.8985 96.566 58.3643ZM4.54516 45.5499C3.63864 45.9674 2.93472 46.7273 2.58784 47.6631C2.24095 48.5989 2.27943 49.6341 2.69482 50.5415L20.2508 88.7799C20.6682 89.6865 21.4282 90.3904 22.364 90.7373C23.2998 91.0842 24.335 91.0457 25.2424 90.6303L96.384 57.9678C97.2905 57.5504 97.9944 56.7904 98.3413 55.8546C98.6882 54.9188 98.6497 53.8837 98.2343 52.9762L80.6783 14.7378C80.2609 13.8313 79.5009 13.1274 78.5651 12.7805C77.6293 12.4336 76.5942 12.4721 75.6867 12.8875L4.54516 45.5499Z" fill="#CACACA"/>
<path d="M78.7895 41.0128L22.2719 66.9612C21.8166 67.1694 21.3083 67.232 20.8161 67.1405C20.324 67.0491 19.8721 66.808 19.5221 66.4501L2.98615 49.4925C2.71495 49.2144 2.51449 48.8752 2.4016 48.5035C2.28871 48.1318 2.26671 47.7385 2.33743 47.3565C2.40816 46.9745 2.56955 46.6151 2.80803 46.3085C3.04652 46.0019 3.35513 45.757 3.70792 45.5944L76.1387 12.2051C76.4869 12.0447 76.8682 11.969 77.2512 11.9844C77.6343 11.9997 78.0083 12.1056 78.3425 12.2933C78.6768 12.481 78.9618 12.7452 79.1743 13.0643C79.3868 13.3835 79.5206 13.7484 79.5649 14.1292L79.5746 14.1289L80.2029 38.7457C80.2154 39.2205 80.0881 39.6885 79.8368 40.0915C79.5855 40.4946 79.2214 40.815 78.7895 41.0128ZM76.3239 12.6002L3.8905 45.9907C3.60115 46.124 3.34802 46.3248 3.15242 46.5763C2.95682 46.8278 2.82445 47.1226 2.76644 47.4359C2.70843 47.7492 2.72647 48.0718 2.81906 48.3766C2.91164 48.6815 3.07606 48.9597 3.29849 49.1878L19.8344 66.1455C20.1215 66.439 20.4921 66.6368 20.8958 66.7118C21.2995 66.7868 21.7165 66.7354 22.0898 66.5646L78.6075 40.6163C78.9617 40.454 79.2604 40.1913 79.4664 39.8607C79.6725 39.5301 79.777 39.1462 79.7667 38.7568L79.144 14.3582L79.2311 14.356L79.144 14.3582C79.1355 14.0289 79.0456 13.7069 78.882 13.421C78.7186 13.1351 78.4867 12.8942 78.2072 12.72C77.9277 12.5458 77.6093 12.4436 77.2806 12.4227C76.9519 12.4018 76.6232 12.4628 76.3239 12.6002Z" fill="#CACACA"/>
<path d="M43.3478 76.1161L25.7392 84.2005C25.6115 84.2593 25.4733 84.2924 25.3328 84.2978C25.1922 84.3032 25.052 84.2809 24.9201 84.232C24.7881 84.1832 24.6672 84.1089 24.564 84.0132C24.4608 83.9176 24.3775 83.8026 24.3188 83.6748C24.2601 83.5469 24.2272 83.4088 24.2219 83.2682C24.2167 83.1277 24.2392 82.9875 24.2881 82.8556C24.3371 82.7237 24.4115 82.6028 24.5073 82.4997C24.603 82.3966 24.7181 82.3134 24.8459 82.2549L42.4545 74.1704C42.7125 74.0523 43.0068 74.0414 43.2728 74.1402C43.5388 74.2389 43.7547 74.4392 43.873 74.6971C43.9914 74.9549 44.0026 75.2492 43.9041 75.5153C43.8056 75.7814 43.6055 75.9975 43.3478 76.1161Z" fill="white"/>
<path d="M56.2299 51.1299C56.5322 51.7866 56.702 52.4965 56.7298 53.2189C56.7576 53.9413 56.6427 54.6621 56.3918 55.3401C56.1408 56.0181 55.7587 56.64 55.2672 57.1703C54.7758 57.7005 54.1846 58.1287 53.5276 58.4303C52.8706 58.732 52.1606 58.9012 51.4381 58.9283C50.7157 58.9554 49.995 58.8398 49.3172 58.5882C48.6394 58.3366 48.0179 57.9539 47.4882 57.4619C46.9584 56.97 46.5308 56.3784 46.2297 55.7211" fill="#CACACA"/>
<path d="M95.9316 110.376H17.6503C16.5366 110.374 15.4689 109.931 14.6814 109.144C13.8939 108.356 13.451 107.289 13.4497 106.175V64.0991C13.451 62.9854 13.894 61.9177 14.6814 61.1302C15.4689 60.3427 16.5366 59.8997 17.6503 59.8984H95.9316C97.0453 59.8997 98.113 60.3427 98.9005 61.1302C99.688 61.9177 100.131 62.9854 100.132 64.0991V106.175C100.131 107.289 99.688 108.356 98.9005 109.144C98.113 109.931 97.0453 110.374 95.9316 110.376Z" fill="white"/>
<path d="M17.6505 62.7344C17.2887 62.7348 16.9419 62.8787 16.686 63.1345C16.4302 63.3903 16.2863 63.7372 16.2859 64.099V106.175C16.2863 106.537 16.4302 106.884 16.686 107.139C16.9419 107.395 17.2887 107.539 17.6505 107.54H95.9318C96.2936 107.539 96.6404 107.395 96.8963 107.139C97.1521 106.884 97.296 106.537 97.2964 106.175V64.099C97.296 63.7372 97.1521 63.3903 96.8963 63.1345C96.6404 62.8787 96.2936 62.7348 95.9318 62.7344H17.6505Z" fill="#427BC8"/>
<path d="M95.9316 110.376H17.6503C16.5366 110.374 15.4689 109.931 14.6814 109.144C13.8939 108.356 13.451 107.289 13.4497 106.175V64.0991C13.451 62.9854 13.894 61.9177 14.6814 61.1302C15.4689 60.3427 16.5366 59.8997 17.6503 59.8984H95.9316C97.0453 59.8997 98.113 60.3427 98.9005 61.1302C99.688 61.9177 100.131 62.9854 100.132 64.0991V106.175C100.131 107.289 99.688 108.356 98.9005 109.144C98.113 109.931 97.0453 110.374 95.9316 110.376ZM17.6503 60.3347C16.6523 60.3359 15.6955 60.7328 14.9898 61.4385C14.2841 62.1442 13.8871 63.101 13.886 64.0991V106.175C13.8871 107.173 14.2841 108.13 14.9898 108.836C15.6955 109.541 16.6523 109.938 17.6503 109.939H95.9316C96.9296 109.938 97.8864 109.541 98.5921 108.836C99.2978 108.13 99.6948 107.173 99.6959 106.175V64.0991C99.6948 63.101 99.2978 62.1442 98.5921 61.4385C97.8864 60.7328 96.9296 60.3359 95.9316 60.3347H17.6503Z" fill="#3F3D56"/>
<path d="M87.0166 87.1887H24.8269C24.3263 87.1879 23.8382 87.0327 23.4291 86.7443C23.02 86.4558 22.7099 86.0482 22.5411 85.5769L14.5889 63.2664C14.4584 62.9005 14.4178 62.5086 14.4703 62.1237C14.5228 61.7388 14.6669 61.3721 14.8905 61.0545C15.1142 60.7369 15.4108 60.4776 15.7555 60.2984C16.1002 60.1193 16.4828 60.0255 16.8713 60.025L96.6274 59.9023C97.0108 59.9018 97.3889 59.9922 97.7306 60.1659C98.0723 60.3397 98.368 60.5919 98.5935 60.902C98.8189 61.2121 98.9677 61.5712 99.0276 61.9498C99.0876 62.3285 99.057 62.7159 98.9383 63.0805L98.9472 63.0843L89.247 85.718C89.0603 86.1548 88.7493 86.5269 88.3528 86.7884C87.9562 87.0499 87.4916 87.189 87.0166 87.1887ZM96.6309 60.3386L16.8718 60.4612C16.5532 60.4617 16.2394 60.5386 15.9567 60.6856C15.674 60.8325 15.4307 61.0452 15.2473 61.3057C15.0638 61.5662 14.9456 61.8669 14.9026 62.1826C14.8595 62.4983 14.8929 62.8197 14.9998 63.1198L22.9521 85.4303C23.0905 85.8169 23.3448 86.1513 23.6804 86.3879C24.0159 86.6245 24.4163 86.7518 24.8269 86.7523H87.0166C87.4062 86.7527 87.7873 86.6385 88.1125 86.424C88.4377 86.2096 88.6928 85.9043 88.846 85.5461L98.4602 63.113L98.5403 63.1474L98.4602 63.113C98.59 62.8102 98.6425 62.48 98.6132 62.152C98.5839 61.824 98.4737 61.5083 98.2924 61.2333C98.1111 60.9584 97.8644 60.7327 97.5744 60.5766C97.2844 60.4204 96.9602 60.3387 96.6309 60.3386Z" fill="#3F3D56"/>
<path d="M40.1606 104.303H20.7848C20.5009 104.303 20.2286 104.19 20.0279 103.989C19.8271 103.789 19.7144 103.516 19.7144 103.233C19.7144 102.949 19.8271 102.676 20.0279 102.476C20.2286 102.275 20.5009 102.162 20.7848 102.162H40.1606C40.4445 102.162 40.7167 102.275 40.9175 102.476C41.1182 102.676 41.231 102.949 41.231 103.233C41.231 103.516 41.1182 103.789 40.9175 103.989C40.7167 104.19 40.4445 104.303 40.1606 104.303Z" fill="white"/>
<path d="M62.2931 86.9707C62.2931 88.4299 61.7134 89.8293 60.6816 90.8611C59.6498 91.8929 58.2504 92.4726 56.7912 92.4726C55.332 92.4726 53.9326 91.8929 52.9008 90.8611C51.869 89.8293 51.2893 88.4299 51.2893 86.9707" fill="#3F3D56"/>
<path d="M27.4873 23.7119C28.5717 23.7119 29.4507 22.8329 29.4507 21.7485C29.4507 20.6642 28.5717 19.7852 27.4873 19.7852C26.403 19.7852 25.5239 20.6642 25.5239 21.7485C25.5239 22.8329 26.403 23.7119 27.4873 23.7119Z" fill="#F0F0F0"/>
<path d="M1.96338 70.833C3.04772 70.833 3.92676 69.954 3.92676 68.8696C3.92676 67.7853 3.04772 66.9062 1.96338 66.9062C0.879035 66.9062 0 67.7853 0 68.8696C0 69.954 0.879035 70.833 1.96338 70.833Z" fill="#F0F0F0"/>
<path d="M100.132 33.9658C101.217 33.9658 102.096 33.0868 102.096 32.0024C102.096 30.9181 101.217 30.0391 100.132 30.0391C99.048 30.0391 98.1689 30.9181 98.1689 32.0024C98.1689 33.0868 99.048 33.9658 100.132 33.9658Z" fill="#F0F0F0"/>
<path d="M133.74 115.327H96.3718C96.3029 115.327 96.2369 115.3 96.1881 115.251C96.1394 115.202 96.1121 115.136 96.1121 115.067C96.1121 114.998 96.1394 114.932 96.1881 114.884C96.2369 114.835 96.3029 114.808 96.3718 114.808H133.74C133.809 114.808 133.875 114.835 133.923 114.884C133.972 114.933 133.999 114.999 133.999 115.067C133.999 115.136 133.972 115.202 133.923 115.251C133.875 115.299 133.809 115.327 133.74 115.327Z" fill="#CACACA"/>
</g>
<defs>
<clipPath id="clip0_73_1200">
<rect width="134" height="115.327" fill="white"/>
</clipPath>
</defs>
</svg>
