<svg width="124" height="122" viewBox="0 0 124 122" fill="none" xmlns="http://www.w3.org/2000/svg">
<g clip-path="url(#clip0_79_376)">
<path d="M78.7203 27.2331H45.3077C44.5463 27.2341 43.8164 27.5371 43.278 28.0757C42.7396 28.6144 42.4367 29.3447 42.4358 30.1064V104.4L42.0528 104.516L33.8562 107.028C33.4677 107.146 33.0481 107.106 32.6895 106.915C32.3309 106.724 32.0626 106.399 31.9435 106.011L7.5622 26.3348C7.44355 25.9461 7.48399 25.5263 7.67463 25.1674C7.86527 24.8086 8.19052 24.5402 8.57889 24.4212L21.2099 20.5518L57.8277 9.33841L70.4586 5.46907C70.6508 5.40989 70.8529 5.3892 71.0531 5.40821C71.2533 5.42722 71.4478 5.48554 71.6255 5.57983C71.8031 5.67413 71.9605 5.80255 72.0885 5.95775C72.2165 6.11295 72.3126 6.29188 72.3714 6.48429L78.6036 26.85L78.7203 27.2331Z" fill="#F2F2F2"/>
<path d="M86.0114 26.8509L78.5002 2.30549C78.3753 1.89652 78.171 1.51619 77.899 1.18624C77.6271 0.856286 77.2928 0.583179 76.9153 0.382521C76.5378 0.181862 76.1245 0.0575848 75.699 0.0167942C75.2735 -0.0239965 74.8441 0.0194992 74.4354 0.144791L56.677 5.58294L20.0612 16.7983L2.30276 22.2383C1.47779 22.4918 0.787042 23.0623 0.382119 23.8247C-0.0228037 24.5872 -0.108815 25.4792 0.142968 26.305L25.8147 110.191C26.0192 110.858 26.4319 111.441 26.9922 111.856C27.5525 112.271 28.231 112.495 28.928 112.495C29.2505 112.496 29.5713 112.447 29.8795 112.352L42.0529 108.624L42.4358 108.505V108.105L42.0529 108.222L29.7666 111.986C29.0384 112.208 28.2519 112.132 27.5796 111.775C26.9073 111.417 26.4041 110.808 26.1804 110.08L0.510661 26.192C0.399819 25.8312 0.361188 25.4522 0.396978 25.0765C0.432768 24.7009 0.542273 24.336 0.719229 24.0027C0.896185 23.6694 1.13712 23.3744 1.42822 23.1344C1.71932 22.8944 2.05488 22.7142 2.41569 22.6042L20.1741 17.1641L56.79 5.95072L74.5484 0.510658C74.8221 0.427103 75.1066 0.3845 75.3927 0.384233C76.0068 0.385613 76.6043 0.583669 77.0977 0.949391C77.5911 1.31511 77.9545 1.82929 78.1346 2.41659L85.6113 26.8509L85.73 27.234H86.1283L86.0114 26.8509Z" fill="#3F3D56"/>
<path d="M23.4893 24.4845C23.1203 24.4842 22.761 24.3657 22.4643 24.1462C22.1676 23.9267 21.9489 23.6179 21.8405 23.265L19.3744 15.2061C19.3081 14.9896 19.2851 14.7622 19.3067 14.5368C19.3283 14.3114 19.394 14.0925 19.5002 13.8926C19.6064 13.6926 19.7509 13.5156 19.9254 13.3715C20.1 13.2275 20.3012 13.1192 20.5176 13.053L54.2039 2.73529C54.6409 2.60188 55.1129 2.64738 55.5164 2.86181C55.9199 3.07623 56.2219 3.44205 56.3561 3.87899L58.8223 11.938C58.9555 12.3752 58.91 12.8474 58.6957 13.2511C58.4814 13.6547 58.1158 13.9568 57.6791 14.0912L23.9927 24.4088C23.8296 24.4589 23.6599 24.4844 23.4893 24.4845Z" fill="#427BC8"/>
<path d="M36.4079 8.61127C38.5228 8.61127 40.2372 6.89606 40.2372 4.78025C40.2372 2.66443 38.5228 0.949219 36.4079 0.949219C34.2931 0.949219 32.5786 2.66443 32.5786 4.78025C32.5786 6.89606 34.2931 8.61127 36.4079 8.61127Z" fill="#427BC8"/>
<path d="M36.4077 7.20634C37.7469 7.20634 38.8326 6.12022 38.8326 4.78042C38.8326 3.44062 37.7469 2.35449 36.4077 2.35449C35.0685 2.35449 33.9829 3.44062 33.9829 4.78042C33.9829 6.12022 35.0685 7.20634 36.4077 7.20634Z" fill="white"/>
<path d="M115.384 111.516H50.6687C50.2372 111.516 49.8236 111.344 49.5185 111.039C49.2134 110.734 49.0418 110.32 49.0413 109.888V32.3098C49.0417 31.8782 49.2134 31.4643 49.5185 31.1591C49.8236 30.8538 50.2372 30.6821 50.6687 30.6816H115.384C115.816 30.6821 116.229 30.8538 116.534 31.1591C116.839 31.4643 117.011 31.8782 117.012 32.3098V109.888C117.011 110.32 116.839 110.734 116.534 111.039C116.229 111.344 115.816 111.516 115.384 111.516Z" fill="#E6E6E6"/>
<path d="M85.6111 26.8506H45.3076C44.4448 26.8518 43.6176 27.1953 43.0074 27.8057C42.3973 28.4161 42.054 29.2437 42.0527 30.107V108.222L42.4357 108.105V30.107C42.4366 29.3452 42.7395 28.6149 43.2779 28.0763C43.8163 27.5376 44.5462 27.2346 45.3076 27.2337H85.7299L85.6111 26.8506ZM120.745 26.8506H45.3076C44.4448 26.8518 43.6176 27.1953 43.0074 27.8057C42.3973 28.4161 42.054 29.2437 42.0527 30.107V117.837C42.054 118.701 42.3973 119.528 43.0074 120.139C43.6176 120.749 44.4448 121.093 45.3076 121.094H120.745C121.608 121.093 122.435 120.749 123.045 120.139C123.655 119.528 123.999 118.701 124 117.837V30.107C123.999 29.2437 123.655 28.4161 123.045 27.8057C122.435 27.1953 121.608 26.8518 120.745 26.8506ZM123.617 117.837C123.616 118.599 123.313 119.33 122.775 119.868C122.236 120.407 121.506 120.71 120.745 120.711H45.3076C44.5462 120.71 43.8163 120.407 43.2779 119.868C42.7395 119.33 42.4366 118.599 42.4357 117.837V30.107C42.4366 29.3452 42.7395 28.6149 43.2779 28.0763C43.8163 27.5376 44.5462 27.2346 45.3076 27.2337H120.745C121.506 27.2346 122.236 27.5376 122.775 28.0763C123.313 28.6149 123.616 29.3452 123.617 30.107V117.837Z" fill="#3F3D56"/>
<path d="M100.641 35.2785H65.4117C64.9548 35.278 64.5168 35.0962 64.1937 34.773C63.8707 34.4498 63.689 34.0116 63.6885 33.5546V25.1263C63.689 24.6692 63.8707 24.231 64.1938 23.9078C64.5168 23.5847 64.9548 23.4029 65.4117 23.4023H100.641C101.098 23.4029 101.536 23.5847 101.859 23.9078C102.182 24.231 102.364 24.6692 102.365 25.1263V33.5546C102.364 34.0116 102.182 34.4498 101.859 34.773C101.536 35.0962 101.098 35.278 100.641 35.2785Z" fill="#427BC8"/>
<path d="M83.0263 23.9775C85.1412 23.9775 86.8556 22.2623 86.8556 20.1465C86.8556 18.0306 85.1412 16.3154 83.0263 16.3154C80.9115 16.3154 79.197 18.0306 79.197 20.1465C79.197 22.2623 80.9115 23.9775 83.0263 23.9775Z" fill="#427BC8"/>
<path d="M83.0265 22.4794C84.3146 22.4794 85.3589 21.4347 85.3589 20.146C85.3589 18.8572 84.3146 17.8125 83.0265 17.8125C81.7383 17.8125 80.6941 18.8572 80.6941 20.146C80.6941 21.4347 81.7383 22.4794 83.0265 22.4794Z" fill="white"/>
</g>
<defs>
<clipPath id="clip0_79_376">
<rect width="124" height="121.094" fill="white"/>
</clipPath>
</defs>
</svg>
