<svg width="341" height="225" viewBox="0 0 341 225" fill="none" xmlns="http://www.w3.org/2000/svg">
<g clip-path="url(#clip0_603_671)">
<path d="M261.078 222.456C256.712 218.384 254.06 211.953 254.756 205.692C255.451 199.431 259.758 193.675 265.345 192.345C270.933 191.016 277.302 194.696 278.999 200.72C279.933 189.107 281.009 177.007 286.603 167.117C291.669 158.162 300.443 151.755 309.952 150.609C319.46 149.462 329.472 153.792 335.402 162.075C341.333 170.358 342.785 182.4 338.631 191.909C335.571 198.915 329.934 204.128 324.028 208.37C304.943 221.96 282.053 227.486 259.57 223.932L261.078 222.456Z" fill="#F2F2F2"/>
<path d="M325.999 154.032C318.153 161.085 310.955 168.973 304.51 177.582C294.422 191.01 286.26 206.064 280.306 222.221C279.87 223.4 281.604 223.913 282.035 222.748C291.777 196.489 307.328 173.344 327.267 155.431C328.163 154.627 326.887 153.234 325.999 154.032Z" fill="white"/>
<path d="M109.773 221.349C115.77 215.757 119.412 206.924 118.457 198.324C117.502 189.724 111.586 181.819 103.912 179.993C96.2375 178.166 87.4896 183.221 85.1588 191.495C83.876 175.544 82.3978 158.925 74.7139 145.342C67.7562 133.042 55.7054 124.242 42.6451 122.667C29.5847 121.093 15.8339 127.039 7.6886 138.416C-0.456664 149.793 -2.451 166.332 3.25373 179.394C7.4562 189.015 15.1986 196.176 23.3108 202.002C49.1913 220.588 81.2961 228.339 111.844 223.377" fill="#F2F2F2"/>
<path d="M20.6035 127.369C31.3799 137.056 41.2661 147.89 50.1191 159.715C58.9735 171.528 66.7689 184.261 73.3957 197.735C77.0998 205.293 80.4273 213.069 83.3633 221.028C83.9619 222.646 81.5799 223.351 80.9879 221.75C75.7875 207.719 69.3537 194.285 61.7786 181.639C54.2404 169.039 45.6124 157.275 36.016 146.514C30.5882 140.43 24.8615 134.681 18.8616 129.291C17.6319 128.186 19.3839 126.273 20.6035 127.369L20.6035 127.369Z" fill="white"/>
<path d="M244.775 224.507H101.712V62.5074C101.712 28.0406 127.12 0 158.349 0H188.138C219.368 0 244.775 28.0406 244.775 62.5074V224.507Z" fill="#F2F2F2"/>
<path d="M214.987 224.507H101.712V62.5072C101.681 49.3003 105.47 36.4272 112.528 25.7622C112.789 25.3708 113.048 24.9845 113.316 24.6024C116.73 19.6606 120.792 15.3085 125.37 11.6897C125.628 11.4821 125.888 11.278 126.152 11.074C129.982 8.14867 134.125 5.75726 138.487 3.95422C138.746 3.84587 139.01 3.7373 139.274 3.63316C143.219 2.07938 147.308 1.01504 151.467 0.459811C151.725 0.420944 151.989 0.39053 152.254 0.360116C156.306 -0.118085 160.393 -0.118085 164.446 0.360116C164.71 0.39053 164.974 0.42094 165.235 0.460227C169.393 1.0155 173.481 2.0797 177.425 3.63318C177.689 3.73732 177.953 3.84588 178.213 3.95445C182.521 5.73474 186.615 8.09047 190.405 10.969C190.668 11.1686 190.932 11.3727 191.191 11.5767C193.757 13.598 196.167 15.8499 198.397 18.3093C200.185 20.2821 201.851 22.3849 203.384 24.6037C203.651 24.9845 203.91 25.3708 204.17 25.7616C211.229 36.4267 215.018 49.3 214.987 62.5072V224.507Z" fill="#CCCCCC"/>
<path d="M205.776 152.051C209.239 152.051 212.047 148.952 212.047 145.13C212.047 141.307 209.239 138.208 205.776 138.208C202.312 138.208 199.505 141.307 199.505 145.13C199.505 148.952 202.312 152.051 205.776 152.051Z" fill="#69ABFF"/>
<path d="M233.056 219.655H228.25L225.964 199.2L233.056 199.2L233.056 219.655Z" fill="#FFB8B8"/>
<path d="M224.818 218.14H234.085V224.579H218.983C218.983 223.734 219.134 222.896 219.427 222.115C219.72 221.334 220.15 220.624 220.692 220.026C221.234 219.428 221.877 218.953 222.585 218.63C223.293 218.306 224.051 218.14 224.818 218.14V218.14Z" fill="#2F2E41"/>
<path d="M256.965 219.655H252.159L249.873 199.2L256.965 199.2L256.965 219.655Z" fill="#FFB8B8"/>
<path d="M248.727 218.14H257.994V224.579H242.892C242.892 223.734 243.043 222.896 243.336 222.115C243.629 221.334 244.059 220.624 244.601 220.026C245.143 219.428 245.786 218.953 246.494 218.63C247.202 218.306 247.961 218.14 248.727 218.14V218.14Z" fill="#2F2E41"/>
<path d="M208.95 146.501C208.604 145.938 208.374 145.299 208.277 144.629C208.179 143.958 208.216 143.272 208.384 142.618C208.553 141.965 208.849 141.36 209.252 140.847C209.655 140.334 210.156 139.924 210.718 139.647L227.053 89.9585L235.091 94.7996L216.44 142.284C216.798 143.357 216.788 144.538 216.411 145.603C216.033 146.669 215.315 147.544 214.392 148.064C213.468 148.583 212.405 148.711 211.402 148.423C210.399 148.135 209.526 147.451 208.95 146.501V146.501Z" fill="#FFB8B8"/>
<path d="M254.51 155.837C253.976 155.499 253.516 155.036 253.161 154.481C252.807 153.925 252.567 153.291 252.459 152.622C252.351 151.953 252.377 151.266 252.536 150.61C252.694 149.953 252.981 149.343 253.376 148.822L248.316 96.2603L257.463 96.7215L259.566 148.423C260.315 149.214 260.775 150.28 260.859 151.42C260.943 152.561 260.645 153.695 260.022 154.609C259.399 155.523 258.493 156.153 257.477 156.379C256.462 156.605 255.406 156.413 254.51 155.837V155.837Z" fill="#FFB8B8"/>
<path d="M247.735 117.145L246.949 97.2723C246.353 93.5364 248.291 90.0048 251.271 89.4276C254.252 88.8524 257.163 91.4435 257.762 95.2067L260.714 113.776L247.735 117.145Z" fill="#88BCFF"/>
<path d="M239.917 80.7549C245.234 80.7549 249.544 75.9982 249.544 70.1304C249.544 64.2626 245.234 59.5059 239.917 59.5059C234.601 59.5059 230.291 64.2626 230.291 70.1304C230.291 75.9982 234.601 80.7549 239.917 80.7549Z" fill="#FFB8B8"/>
<path d="M254.449 143.883H225.426L225.46 143.634C225.513 143.261 230.633 106.242 226.857 94.1314C226.478 92.9412 226.511 91.6384 226.95 90.4738C227.389 89.3091 228.203 88.3649 229.235 87.8229H229.236C234.633 85.0175 244.995 81.563 253.741 89.9465C255.027 91.2005 256.032 92.7677 256.676 94.5242C257.319 96.2807 257.584 98.1783 257.448 100.067L254.449 143.883Z" fill="#69ABFF"/>
<path d="M231 111.713L217.933 108.788L224.058 92.7694C224.425 91.218 225.334 89.8903 226.586 89.0776C227.838 88.265 229.332 88.0336 230.738 88.4344C232.145 88.8352 233.35 89.8353 234.089 91.2155C234.829 92.5956 235.042 94.243 234.682 95.7964L231 111.713Z" fill="#88BCFF"/>
<path d="M253.483 141.504C258.153 161.133 258.662 186.089 257.402 213.312L251.131 212.447L239.765 160.537L233.493 213.312L226.438 212.879C224.33 184.316 222.278 159.795 225.654 143.667L253.483 141.504Z" fill="#2F2E41"/>
<path d="M246.26 78.3413C244.465 80.4526 241.129 79.3192 240.895 76.4349C240.877 76.2109 240.878 75.9856 240.899 75.7619C241.02 74.4843 241.689 73.3243 241.529 71.9753C241.492 71.6396 241.379 71.3196 241.199 71.0458C239.768 68.9307 236.409 71.9917 235.058 70.0771C234.23 68.9031 235.203 67.0546 234.568 65.7424C233.729 64.0106 231.245 64.8649 229.687 63.9165C227.953 62.8612 228.057 59.9258 229.198 58.1404C230.59 55.963 233.03 54.8011 235.439 54.6337C237.849 54.4662 240.242 55.1851 242.491 56.1526C245.047 57.252 247.582 58.7712 249.155 61.2517C251.068 64.2681 251.252 68.3234 250.295 71.8505C249.713 73.9961 247.727 76.6172 246.26 78.3413Z" fill="#2F2E41"/>
<path d="M329.234 224.786H39.8569C39.7334 224.786 39.615 224.731 39.5278 224.635C39.4406 224.538 39.3916 224.407 39.3916 224.271C39.3916 224.135 39.4406 224.004 39.5278 223.907C39.615 223.811 39.7334 223.756 39.8569 223.756H329.234C329.358 223.756 329.476 223.811 329.563 223.907C329.651 224.004 329.7 224.135 329.7 224.271C329.7 224.407 329.651 224.538 329.563 224.635C329.476 224.731 329.358 224.786 329.234 224.786V224.786Z" fill="#3F3D56"/>
<path d="M183.826 177.573H132.872C132.201 177.577 131.556 177.287 131.079 176.767C130.601 176.246 130.33 175.538 130.325 174.798V49.2771C130.33 48.5365 130.601 47.8284 131.079 47.3082C131.556 46.7879 132.201 46.498 132.872 46.502H183.826C184.497 46.498 185.143 46.7879 185.62 47.3082C186.098 47.8284 186.369 48.5365 186.374 49.2771V174.798C186.369 175.538 186.098 176.246 185.62 176.767C185.143 177.287 184.497 177.577 183.826 177.573V177.573Z" fill="white"/>
<path d="M186.374 87.1167H130.325V87.9819H186.374V87.1167Z" fill="#CCCCCC"/>
<path d="M186.57 136.478H130.521V137.343H186.57V136.478Z" fill="#CCCCCC"/>
<path d="M148.747 46.502H147.963V178.005H148.747V46.502Z" fill="#CCCCCC"/>
<path d="M168.344 46.502H167.56V178.005H168.344V46.502Z" fill="#CCCCCC"/>
</g>
<defs>
<clipPath id="clip0_603_671">
<rect width="341" height="225" fill="white"/>
</clipPath>
</defs>
</svg>
