<svg width="48" height="48" viewBox="0 0 48 48" fill="none" xmlns="http://www.w3.org/2000/svg">
<rect width="48" height="48" rx="24" fill="#F9D22D"/>
<path d="M23.1065 31.4472C23.2759 31.786 23.6222 32 24.001 32C24.3797 32 24.726 31.786 24.8954 31.4472L31.8954 17.4472C32.0727 17.0925 32.0237 16.6665 31.7705 16.3614C31.5172 16.0562 31.1076 15.9295 30.7262 16.0385L25.7263 17.467C25.297 17.5897 25.001 17.9821 25.001 18.4286L25.001 23C25.001 23.5523 24.5533 24 24.001 24C23.4487 24 23.001 23.5523 23.001 23L23.001 18.4286C23.001 17.9821 22.705 17.5897 22.2757 17.467L17.2757 16.0385C16.8944 15.9295 16.4847 16.0562 16.2315 16.3614C15.9782 16.6665 15.9292 17.0925 16.1065 17.4472L23.1065 31.4472Z" fill="white"/>
</svg>
