<svg width="50" height="51" viewBox="0 0 50 51" fill="none" xmlns="http://www.w3.org/2000/svg">
<g filter="url(#filter0_d_405_389)">
<rect x="0.999023" width="48" height="48" rx="24" fill="#22B07D"/>
</g>
<path d="M23.7981 14.3999C23.1354 14.3999 22.5981 14.9372 22.5981 15.5999C22.5981 16.2626 23.1354 16.7999 23.7981 16.7999H26.1981C26.8608 16.7999 27.3981 16.2626 27.3981 15.5999C27.3981 14.9372 26.8608 14.3999 26.1981 14.3999H23.7981Z" fill="white"/>
<path fill-rule="evenodd" clip-rule="evenodd" d="M17.7981 17.9999C17.7981 16.6744 18.8726 15.5999 20.1981 15.5999C20.1981 17.5881 21.8099 19.1999 23.7981 19.1999H26.1981C28.1863 19.1999 29.7981 17.5881 29.7981 15.5999C31.1236 15.5999 32.1981 16.6744 32.1981 17.9999V31.1999C32.1981 32.5254 31.1236 33.5999 29.7981 33.5999H20.1981C18.8726 33.5999 17.7981 32.5254 17.7981 31.1999V17.9999ZM21.3981 22.7999C20.7354 22.7999 20.1981 23.3372 20.1981 23.9999C20.1981 24.6626 20.7354 25.1999 21.3981 25.1999H21.4101C22.0728 25.1999 22.6101 24.6626 22.6101 23.9999C22.6101 23.3372 22.0728 22.7999 21.4101 22.7999H21.3981ZM24.9981 22.7999C24.3354 22.7999 23.7981 23.3372 23.7981 23.9999C23.7981 24.6626 24.3354 25.1999 24.9981 25.1999H28.5981C29.2608 25.1999 29.7981 24.6626 29.7981 23.9999C29.7981 23.3372 29.2608 22.7999 28.5981 22.7999H24.9981ZM21.3981 27.5999C20.7354 27.5999 20.1981 28.1372 20.1981 28.7999C20.1981 29.4626 20.7354 29.9999 21.3981 29.9999H21.4101C22.0728 29.9999 22.6101 29.4626 22.6101 28.7999C22.6101 28.1372 22.0728 27.5999 21.4101 27.5999H21.3981ZM24.9981 27.5999C24.3354 27.5999 23.7981 28.1372 23.7981 28.7999C23.7981 29.4626 24.3354 29.9999 24.9981 29.9999H28.5981C29.2608 29.9999 29.7981 29.4626 29.7981 28.7999C29.7981 28.1372 29.2608 27.5999 28.5981 27.5999H24.9981Z" fill="white"/>
<defs>
<filter id="filter0_d_405_389" x="-0.000976562" y="0" width="50" height="51" filterUnits="userSpaceOnUse" color-interpolation-filters="sRGB">
<feFlood flood-opacity="0" result="BackgroundImageFix"/>
<feColorMatrix in="SourceAlpha" type="matrix" values="0 0 0 0 0 0 0 0 0 0 0 0 0 0 0 0 0 0 127 0" result="hardAlpha"/>
<feOffset dy="2"/>
<feGaussianBlur stdDeviation="0.5"/>
<feColorMatrix type="matrix" values="0 0 0 0 0.25098 0 0 0 0 0.282353 0 0 0 0 0.321569 0 0 0 0.05 0"/>
<feBlend mode="normal" in2="BackgroundImageFix" result="effect1_dropShadow_405_389"/>
<feBlend mode="normal" in="SourceGraphic" in2="effect1_dropShadow_405_389" result="shape"/>
</filter>
</defs>
</svg>
