<svg width="60" height="60" viewBox="0 0 60 60" fill="none" xmlns="http://www.w3.org/2000/svg">
<circle cx="30" cy="30" r="30" fill="#D9E5F4"/>
<circle cx="30" cy="30" r="25" fill="#427BC8"/>
<path fill-rule="evenodd" clip-rule="evenodd" d="M20.2 21.6002C20.2 20.827 20.8268 20.2002 21.6 20.2002H25.8C26.5731 20.2002 27.2 20.827 27.2 21.6002V25.8002C27.2 26.5734 26.5731 27.2002 25.8 27.2002H21.6C20.8268 27.2002 20.2 26.5734 20.2 25.8002V21.6002ZM23 24.4002V23.0002H24.4V24.4002H23Z" fill="white"/>
<path fill-rule="evenodd" clip-rule="evenodd" d="M20.2 34.2002C20.2 33.427 20.8268 32.8002 21.6 32.8002H25.8C26.5731 32.8002 27.2 33.427 27.2 34.2002V38.4002C27.2 39.1734 26.5731 39.8002 25.8 39.8002H21.6C20.8268 39.8002 20.2 39.1734 20.2 38.4002V34.2002ZM23 37.0002V35.6002H24.4V37.0002H23Z" fill="white"/>
<path fill-rule="evenodd" clip-rule="evenodd" d="M34.1999 20.2002C33.4268 20.2002 32.7999 20.827 32.7999 21.6002V25.8002C32.7999 26.5734 33.4268 27.2002 34.1999 27.2002H38.3999C39.1731 27.2002 39.7999 26.5734 39.7999 25.8002V21.6002C39.7999 20.827 39.1731 20.2002 38.3999 20.2002H34.1999ZM35.5999 23.0002V24.4002H36.9999V23.0002H35.5999Z" fill="white"/>
<path d="M31.4 21.6002C31.4 20.827 30.7731 20.2002 30 20.2002C29.2268 20.2002 28.6 20.827 28.6 21.6002V23.0002C28.6 23.7734 29.2268 24.4002 30 24.4002C30.7731 24.4002 31.4 23.7734 31.4 23.0002V21.6002Z" fill="white"/>
<path d="M30 25.8002C30.7731 25.8002 31.4 26.427 31.4 27.2002V28.6002H34.1999C34.9731 28.6002 35.5999 29.227 35.5999 30.0002C35.5999 30.7734 34.9731 31.4002 34.1999 31.4002H30C29.2268 31.4002 28.6 30.7734 28.6 30.0002V27.2002C28.6 26.427 29.2268 25.8002 30 25.8002Z" fill="white"/>
<path d="M38.3999 28.6002C37.6268 28.6002 36.9999 29.227 36.9999 30.0002C36.9999 30.7734 37.6268 31.4002 38.3999 31.4002C39.1731 31.4002 39.7999 30.7734 39.7999 30.0002C39.7999 29.227 39.1731 28.6002 38.3999 28.6002Z" fill="white"/>
<path d="M28.6 34.2002C28.6 33.427 29.2268 32.8002 30 32.8002H31.4C32.1731 32.8002 32.7999 33.427 32.7999 34.2002C32.7999 34.9734 32.1731 35.6002 31.4 35.6002V38.4002C31.4 39.1734 30.7731 39.8002 30 39.8002C29.2268 39.8002 28.6 39.1734 28.6 38.4002V34.2002Z" fill="white"/>
<path d="M25.8 31.4002C26.5731 31.4002 27.2 30.7734 27.2 30.0002C27.2 29.227 26.5731 28.6002 25.8 28.6002H21.6C20.8268 28.6002 20.2 29.227 20.2 30.0002C20.2 30.7734 20.8268 31.4002 21.6 31.4002H25.8Z" fill="white"/>
<path d="M39.7999 34.2002C39.7999 34.9734 39.1731 35.6002 38.3999 35.6002H35.5999C34.8268 35.6002 34.1999 34.9734 34.1999 34.2002C34.1999 33.427 34.8268 32.8002 35.5999 32.8002H38.3999C39.1731 32.8002 39.7999 33.427 39.7999 34.2002Z" fill="white"/>
<path d="M38.3999 39.8002C39.1731 39.8002 39.7999 39.1734 39.7999 38.4002C39.7999 37.627 39.1731 37.0002 38.3999 37.0002H34.1999C33.4268 37.0002 32.7999 37.627 32.7999 38.4002C32.7999 39.1734 33.4268 39.8002 34.1999 39.8002H38.3999Z" fill="white"/>
</svg>
