<svg width="48" height="48" viewBox="0 0 48 48" fill="none" xmlns="http://www.w3.org/2000/svg">
<rect width="48" height="48" rx="24" fill="#427BC8"/>
<path d="M14 21C12.8954 21 12 21.8954 12 23V27C12 28.1046 12.8954 29 14 29L14 23H24C24 21.8954 23.1046 21 22 21H14Z" fill="#FFF9F9"/>
<path fill-rule="evenodd" clip-rule="evenodd" d="M16 27C16 25.8954 16.8954 25 18 25H26C27.1046 25 28 25.8954 28 27V31C28 32.1046 27.1046 33 26 33H18C16.8954 33 16 32.1046 16 31V27ZM22 31C23.1046 31 24 30.1046 24 29C24 27.8954 23.1046 27 22 27C20.8954 27 20 27.8954 20 29C20 30.1046 20.8954 31 22 31Z" fill="#FFF9F9"/>
<path fill-rule="evenodd" clip-rule="evenodd" d="M30 15C30.4418 15 30.8 15.3582 30.8 15.8V18.2L33.2 18.2C33.6418 18.2 34 18.5582 34 19C34 19.4418 33.6418 19.8 33.2 19.8H30.8V22.2C30.8 22.6418 30.4418 23 30 23C29.5582 23 29.2 22.6418 29.2 22.2V19.8H26.8C26.3582 19.8 26 19.4418 26 19C26 18.5582 26.3582 18.2 26.8 18.2L29.2 18.2V15.8C29.2 15.3582 29.5582 15 30 15Z" fill="white"/>
</svg>
